<svg xmlns="http://www.w3.org/2000/svg" xmlns:xlink="http://www.w3.org/1999/xlink" viewBox="0 0 918.71 785.6"><defs><style>.cls-1,.cls-133{fill:none;}.cls-2{isolation:isolate;}.cls-3{clip-path:url(#clip-path);}.cls-4{fill:#dcf0f3;}.cls-5{fill:#a0d9db;}.cls-102,.cls-105,.cls-110,.cls-130,.cls-15,.cls-47,.cls-55,.cls-6,.cls-76,.cls-80,.cls-89,.cls-90,.cls-98{mix-blend-mode:multiply;}.cls-6{fill:url(#linear-gradient);}.cls-7{fill:#1e110a;}.cls-8{fill:#f16a22;}.cls-9{fill:#fbb544;}.cls-10{fill:#484848;}.cls-11{fill:#c2c2c2;}.cls-12{fill:#f5f0d2;}.cls-13{fill:#4a3231;}.cls-14{fill:#3d3d3d;}.cls-15{fill:#bfbebe;}.cls-16{fill:#4a4848;}.cls-17{fill:#e53625;}.cls-18{fill:#5a4140;}.cls-19{fill:#a7a8ab;}.cls-20{fill:#f9a233;}.cls-21{fill:#545554;}.cls-22{fill:#f38c1f;}.cls-23{fill:#f3b877;}.cls-24{fill:url(#linear-gradient-2);}.cls-25,.cls-36{fill:#bd2026;}.cls-25,.cls-26,.cls-27,.cls-28{fill-rule:evenodd;}.cls-26{fill:#ec9880;}.cls-27{fill:#37394e;}.cls-101,.cls-28,.cls-61{fill:#fff;}.cls-29{fill:#15182c;}.cls-30{fill:#25263a;}.cls-31{fill:#ec1c24;}.cls-32{fill:#f37475;}.cls-33{fill:#e24243;}.cls-34{fill:#787878;opacity:0.1;}.cls-35{fill:#ce4327;}.cls-37{fill:#5c2d55;}.cls-38{fill:#2b3278;}.cls-39{fill:url(#radial-gradient);}.cls-40{fill:url(#radial-gradient-2);}.cls-41{fill:#491414;}.cls-42{fill:#571d0c;}.cls-43{fill:url(#Áåçûìÿííûé_ãðàäèåíò_68);}.cls-44{fill:#8a181e;}.cls-45,.cls-48{fill:#62061b;}.cls-46{fill:url(#Áåçûìÿííûé_ãðàäèåíò_68-2);}.cls-47{fill:#37111c;opacity:0.33;}.cls-101,.cls-130,.cls-48,.cls-66,.cls-70,.cls-74{opacity:0.5;}.cls-49{fill:#ef5462;}.cls-50,.cls-51{opacity:0.27;}.cls-100,.cls-103,.cls-104,.cls-106,.cls-111,.cls-118,.cls-120,.cls-121,.cls-123,.cls-50,.cls-51,.cls-54,.cls-62,.cls-72,.cls-73,.cls-79,.cls-84,.cls-85,.cls-87,.cls-92,.cls-99{mix-blend-mode:color-dodge;}.cls-50{fill:url(#Áåçûìÿííûé_ãðàäèåíò_74);}.cls-51{fill:url(#Áåçûìÿííûé_ãðàäèåíò_74-2);}.cls-52{fill:url(#Áåçûìÿííûé_ãðàäèåíò_3);}.cls-53,.cls-55{fill:#776a97;}.cls-54{fill:url(#Áåçûìÿííûé_ãðàäèåíò_115);}.cls-55{opacity:0.71;}.cls-56{fill:url(#Áåçûìÿííûé_ãðàäèåíò_3-2);}.cls-57{fill:#221537;}.cls-58{fill:url(#Áåçûìÿííûé_ãðàäèåíò_149);}.cls-59{fill:url(#Áåçûìÿííûé_ãðàäèåíò_3-3);}.cls-60{fill:url(#Áåçûìÿííûé_ãðàäèåíò_7);}.cls-62{opacity:0.73;fill:url(#Áåçûìÿííûé_ãðàäèåíò_129);}.cls-63{fill:#e07c49;}.cls-64{fill:#bb4729;}.cls-65,.cls-66{fill:#fff5d6;}.cls-67{fill:url(#Áåçûìÿííûé_ãðàäèåíò_6);}.cls-68,.cls-74{fill:#2b3618;}.cls-69{fill:#d5c9c9;}.cls-70{fill:#ad8d94;}.cls-71{fill:#fff494;}.cls-72,.cls-73{opacity:0.48;}.cls-72{fill:url(#Áåçûìÿííûé_ãðàäèåíò_38);}.cls-73{fill:url(#Áåçûìÿííûé_ãðàäèåíò_38-2);}.cls-75{fill:url(#Áåçûìÿííûé_ãðàäèåíò_128);}.cls-76{fill:#a01d21;opacity:0.26;}.cls-77{fill:#3a130e;}.cls-78{fill:url(#Áåçûìÿííûé_ãðàäèåíò_11);}.cls-79{fill:url(#Áåçûìÿííûé_ãðàäèåíò_115-2);}.cls-80,.cls-89,.cls-90{opacity:0.86;}.cls-80{fill:url(#Áåçûìÿííûé_ãðàäèåíò_87);}.cls-81{fill:url(#Áåçûìÿííûé_ãðàäèåíò_140);}.cls-82{fill:#05182e;opacity:0.18;}.cls-83{fill:#b1ddd4;}.cls-84{fill:url(#Áåçûìÿííûé_ãðàäèåíò_115-3);}.cls-85{fill:url(#Áåçûìÿííûé_ãðàäèåíò_115-4);}.cls-86{fill:url(#Áåçûìÿííûé_ãðàäèåíò_11-2);}.cls-87{fill:url(#Áåçûìÿííûé_ãðàäèåíò_115-5);}.cls-88{fill:url(#Áåçûìÿííûé_ãðàäèåíò_169);}.cls-89{fill:url(#Áåçûìÿííûé_ãðàäèåíò_87-2);}.cls-90{fill:url(#Áåçûìÿííûé_ãðàäèåíò_87-3);}.cls-91{fill:url(#Áåçûìÿííûé_ãðàäèåíò_169-2);}.cls-92{opacity:0.64;fill:url(#Áåçûìÿííûé_ãðàäèåíò_17);}.cls-93{fill:#110f3f;}.cls-94{fill:url(#Áåçûìÿííûé_ãðàäèåíò_53);}.cls-95{fill:url(#Áåçûìÿííûé_ãðàäèåíò_18);}.cls-96{fill:#120f26;}.cls-97{fill:url(#Áåçûìÿííûé_ãðàäèåíò_16);}.cls-98{fill:url(#Áåçûìÿííûé_ãðàäèåíò_53-2);}.cls-100,.cls-99{opacity:0.49;}.cls-99{fill:url(#Áåçûìÿííûé_ãðàäèåíò_38-3);}.cls-100{fill:url(#Áåçûìÿííûé_ãðàäèåíò_38-4);}.cls-101{mix-blend-mode:soft-light;}.cls-102{fill:url(#Áåçûìÿííûé_ãðàäèåíò_53-3);}.cls-103,.cls-104{opacity:0.41;}.cls-103{fill:url(#Áåçûìÿííûé_ãðàäèåíò_15);}.cls-104{fill:url(#Áåçûìÿííûé_ãðàäèåíò_15-2);}.cls-105{fill:url(#Áåçûìÿííûé_ãðàäèåíò_53-4);}.cls-106{opacity:0.93;fill:url(#Áåçûìÿííûé_ãðàäèåíò_100);}.cls-107{fill:#f27221;}.cls-108{fill:url(#Áåçûìÿííûé_ãðàäèåíò_31);}.cls-109{fill:url(#Áåçûìÿííûé_ãðàäèåíò_31-2);}.cls-110{fill:#6d110f;opacity:0.56;}.cls-111{opacity:0.63;fill:url(#Áåçûìÿííûé_ãðàäèåíò_19);}.cls-112{fill:#668d3d;}.cls-113{fill:#99ad3b;}.cls-114{fill:#fffdf1;}.cls-115,.cls-117{fill:#3f0c2e;}.cls-116{fill:#b21e5f;opacity:0.07;}.cls-117{opacity:0.72;}.cls-118{fill:url(#Áåçûìÿííûé_ãðàäèåíò_115-6);}.cls-119{fill:url(#Áåçûìÿííûé_ãðàäèåíò_169-3);}.cls-120{fill:url(#Áåçûìÿííûé_ãðàäèåíò_115-7);}.cls-121{fill:url(#Áåçûìÿííûé_ãðàäèåíò_115-8);}.cls-122{fill:#899e3b;}.cls-123{fill:url(#Áåçûìÿííûé_ãðàäèåíò_115-9);}.cls-124{fill:url(#Áåçûìÿííûé_ãðàäèåíò_8);}.cls-125{fill:url(#Áåçûìÿííûé_ãðàäèåíò_9);}.cls-126{fill:url(#Áåçûìÿííûé_ãðàäèåíò_9-2);}.cls-127,.cls-130{fill:#821618;}.cls-128{fill:url(#Áåçûìÿííûé_ãðàäèåíò_14);}.cls-129{fill:#ffd065;}.cls-131{fill:#dda565;}.cls-132{fill:#c68f5a;}.cls-133{stroke:#cd2d27;stroke-linecap:round;stroke-miterlimit:10;stroke-width:1.25px;}.cls-134{fill:#cc2b27;}.cls-135{fill:#020202;}</style><clipPath id="clip-path" transform="translate(-140.99 -192.18)"><path class="cls-1" d="M785.85,220.4c-44.75,2.91-90.14,14.41-132.36,28.13-48.94,15.9-97.89,41.75-148.33,49.25-64.88,9.64-130.88,10.48-193.78,31.94-110.13,37.57-174.74,145.21-127,258.5,27.61,65.53,81.19,114,126.12,167.21,77,91.21,183.14,158.19,304.38,166.12,187.39,12.27,364.29-115.4,400.82-301.68,22.49-114.69,36.86-254.94-56-343.49C910.09,229.12,848.61,216.31,785.85,220.4Z"/></clipPath><linearGradient id="linear-gradient" x1="438.44" y1="928.08" x2="432.69" y2="189.68" gradientUnits="userSpaceOnUse"><stop offset="0" stop-color="#4696ba"/><stop offset="0.17" stop-color="#4a98bb" stop-opacity="0.98"/><stop offset="0.31" stop-color="#549ebf" stop-opacity="0.92"/><stop offset="0.45" stop-color="#66a8c6" stop-opacity="0.82"/><stop offset="0.59" stop-color="#80b7d0" stop-opacity="0.69"/><stop offset="0.72" stop-color="#a1c9dc" stop-opacity="0.51"/><stop offset="0.86" stop-color="#c9e0eb" stop-opacity="0.29"/><stop offset="0.98" stop-color="#f8fbfc" stop-opacity="0.04"/><stop offset="1" stop-color="#fff" stop-opacity="0"/></linearGradient><linearGradient id="linear-gradient-2" x1="482.93" y1="790.47" x2="623.93" y2="790.47" gradientUnits="userSpaceOnUse"><stop offset="0.22" stop-color="#2a282a"/><stop offset="0.39" stop-color="#413536"/><stop offset="0.58" stop-color="#564241"/><stop offset="0.7" stop-color="#5e4645"/></linearGradient><radialGradient id="radial-gradient" cx="481.53" cy="593.19" r="30.69" gradientUnits="userSpaceOnUse"><stop offset="0.14" stop-color="#f16a22"/><stop offset="0.37" stop-color="#f16a22"/><stop offset="0.79" stop-color="#f16a22"/><stop offset="0.82" stop-color="#f37726"/><stop offset="0.86" stop-color="#f89a31"/><stop offset="0.87" stop-color="#f9a233"/><stop offset="0.96" stop-color="#f16a22"/></radialGradient><radialGradient id="radial-gradient-2" cx="480.35" cy="599.54" r="27.36" gradientUnits="userSpaceOnUse"><stop offset="0.14" stop-color="#f16a22"/><stop offset="0.37" stop-color="#f16a22"/><stop offset="0.87" stop-color="#f16a22"/></radialGradient><linearGradient id="Áåçûìÿííûé_ãðàäèåíò_68" x1="1204.15" y1="410.28" x2="1204.15" y2="391.66" gradientTransform="matrix(-0.99, -0.15, -0.15, 0.99, 1796.66, 212.7)" gradientUnits="userSpaceOnUse"><stop offset="0" stop-color="#bd4c27"/><stop offset="0.99" stop-color="#8e311d"/></linearGradient><linearGradient id="Áåçûìÿííûé_ãðàäèåíò_68-2" x1="1111.92" y1="411.26" x2="1111.92" y2="392.12" xlink:href="#Áåçûìÿííûé_ãðàäèåíò_68"/><linearGradient id="Áåçûìÿííûé_ãðàäèåíò_74" x1="450.83" y1="359.37" x2="496.54" y2="359.37" gradientTransform="matrix(0.99, 0.15, -0.15, 0.99, 169.11, -41.21)" gradientUnits="userSpaceOnUse"><stop offset="0"/><stop offset="1" stop-color="#fff"/></linearGradient><linearGradient id="Áåçûìÿííûé_ãðàäèåíò_74-2" x1="448.79" y1="379.59" x2="495.69" y2="379.59" xlink:href="#Áåçûìÿííûé_ãðàäèåíò_74"/><linearGradient id="Áåçûìÿííûé_ãðàäèåíò_3" x1="1117.75" y1="397.38" x2="1159.15" y2="397.38" gradientTransform="matrix(-0.97, -0.23, -0.23, 0.97, 1987.81, 435.47)" gradientUnits="userSpaceOnUse"><stop offset="0" stop-color="#93899b"/><stop offset="1" stop-color="#c1909c"/></linearGradient><linearGradient id="Áåçûìÿííûé_ãðàäèåíò_115" x1="1122.83" y1="396.81" x2="1159.16" y2="396.81" gradientTransform="matrix(-0.97, -0.23, -0.23, 0.97, 1987.81, 435.47)" gradientUnits="userSpaceOnUse"><stop offset="0"/><stop offset="1" stop-color="#515524"/></linearGradient><linearGradient id="Áåçûìÿííûé_ãðàäèåíò_3-2" x1="1360.48" y1="625.35" x2="1381.96" y2="625.35" gradientTransform="matrix(-0.98, -0.21, -0.21, 0.98, 2184.1, 245.16)" xlink:href="#Áåçûìÿííûé_ãðàäèåíò_3"/><linearGradient id="Áåçûìÿííûé_ãðàäèåíò_149" x1="1347.59" y1="646.97" x2="1351.76" y2="646.97" gradientTransform="matrix(-0.98, -0.21, -0.21, 0.98, 2184.1, 245.16)" gradientUnits="userSpaceOnUse"><stop offset="0" stop-color="#93899b"/><stop offset="1" stop-color="#664175"/></linearGradient><linearGradient id="Áåçûìÿííûé_ãðàäèåíò_3-3" x1="1346.99" y1="647.05" x2="1351.16" y2="647.05" gradientTransform="matrix(-0.98, -0.21, -0.21, 0.98, 2184.1, 245.16)" xlink:href="#Áåçûìÿííûé_ãðàäèåíò_3"/><linearGradient id="Áåçûìÿííûé_ãðàäèåíò_7" x1="1363.85" y1="639.2" x2="1380.78" y2="612.11" gradientTransform="matrix(-0.98, -0.21, -0.21, 0.98, 2184.1, 245.16)" gradientUnits="userSpaceOnUse"><stop offset="0.01" stop-color="#fcfae1"/><stop offset="1" stop-color="#e1d0c6"/></linearGradient><linearGradient id="Áåçûìÿííûé_ãðàäèåíò_129" x1="1362.53" y1="614.29" x2="1376.43" y2="614.29" gradientTransform="matrix(-0.98, -0.21, -0.21, 0.98, 2184.1, 245.16)" gradientUnits="userSpaceOnUse"><stop offset="0"/><stop offset="1" stop-color="#89762e"/></linearGradient><linearGradient id="Áåçûìÿííûé_ãðàäèåíò_6" x1="1333.59" y1="583.77" x2="1372.47" y2="583.77" gradientTransform="matrix(-1, 0.02, 0.02, 1, 1901.02, -206.45)" gradientUnits="userSpaceOnUse"><stop offset="0.01" stop-color="#7f8937"/><stop offset="1" stop-color="#455a29"/></linearGradient><linearGradient id="Áåçûìÿííûé_ãðàäèåíò_38" x1="1340.81" y1="587.79" x2="1340.81" y2="579.55" gradientTransform="matrix(-1, 0.02, 0.02, 1, 1901.02, -206.45)" gradientUnits="userSpaceOnUse"><stop offset="0"/><stop offset="1" stop-color="#f16b6c"/></linearGradient><linearGradient id="Áåçûìÿííûé_ãðàäèåíò_38-2" x1="1348.05" y1="587.3" x2="1348.05" y2="579.77" xlink:href="#Áåçûìÿííûé_ãðàäèåíò_38"/><linearGradient id="Áåçûìÿííûé_ãðàäèåíò_128" x1="1383.62" y1="593.92" x2="1422.34" y2="593.92" gradientTransform="matrix(-1, 0, 0, 1, 1917.49, -192.18)" gradientUnits="userSpaceOnUse"><stop offset="0" stop-color="#8a2c52"/><stop offset="1" stop-color="#651246"/></linearGradient><linearGradient id="Áåçûìÿííûé_ãðàäèåíò_11" x1="-2.84" y1="635.73" x2="-2.84" y2="563.25" gradientTransform="matrix(-1, 0, 0, 1, 544.41, -192.18)" gradientUnits="userSpaceOnUse"><stop offset="0.03" stop-color="#c4b5b5"/><stop offset="0.3" stop-color="#93899b"/><stop offset="1" stop-color="#c1909c"/></linearGradient><linearGradient id="Áåçûìÿííûé_ãðàäèåíò_115-2" x1="-2.89" y1="612.14" x2="-2.89" y2="574.13" gradientTransform="matrix(-1, 0, 0, 1, 544.41, -192.18)" xlink:href="#Áåçûìÿííûé_ãðàäèåíò_115"/><linearGradient id="Áåçûìÿííûé_ãðàäèåíò_87" x1="-2.78" y1="570.79" x2="-2.78" y2="563.25" gradientTransform="matrix(-1, 0, 0, 1, 544.41, -192.18)" gradientUnits="userSpaceOnUse"><stop offset="0" stop-color="#c1909c"/><stop offset="1" stop-color="#93899b"/></linearGradient><linearGradient id="Áåçûìÿííûé_ãðàäèåíò_140" x1="-1.39" y1="568.49" x2="-1.39" y2="499.93" gradientTransform="matrix(-1, 0, 0, 1, 685.39, 0)" gradientUnits="userSpaceOnUse"><stop offset="0.04" stop-color="#80a33e"/><stop offset="0.99" stop-color="#006953"/></linearGradient><linearGradient id="Áåçûìÿííûé_ãðàäèåíò_115-3" x1="2369.53" y1="444.21" x2="2369.53" y2="407.64" gradientTransform="translate(-1641.65 -83) rotate(4.27)" xlink:href="#Áåçûìÿííûé_ãðàäèåíò_115"/><linearGradient id="Áåçûìÿííûé_ãðàäèåíò_115-4" x1="2373.33" y1="446.97" x2="2373.33" y2="414.86" gradientTransform="translate(-1641.65 -83) rotate(4.27)" xlink:href="#Áåçûìÿííûé_ãðàäèåíò_115"/><linearGradient id="Áåçûìÿííûé_ãðàäèåíò_11-2" x1="-3.18" y1="637.99" x2="-3.18" y2="550.43" xlink:href="#Áåçûìÿííûé_ãðàäèåíò_11"/><linearGradient id="Áåçûìÿííûé_ãðàäèåíò_115-5" x1="-18.55" y1="610.41" x2="-18.55" y2="551.24" gradientTransform="matrix(-1, 0, 0, 1, 544.41, -192.18)" xlink:href="#Áåçûìÿííûé_ãðàäèåíò_115"/><linearGradient id="Áåçûìÿííûé_ãðàäèåíò_169" x1="-18.13" y1="614.55" x2="-18.13" y2="585.58" gradientTransform="matrix(-1, 0, 0, 1, 544.41, -192.18)" gradientUnits="userSpaceOnUse"><stop offset="0" stop-color="#f2ecc9"/><stop offset="1" stop-color="#f2b7af"/></linearGradient><linearGradient id="Áåçûìÿííûé_ãðàäèåíò_87-2" x1="10.55" y1="637.99" x2="10.55" y2="558.75" xlink:href="#Áåçûìÿííûé_ãðàäèåíò_87"/><linearGradient id="Áåçûìÿííûé_ãðàäèåíò_87-3" x1="-16.66" y1="637.99" x2="-16.66" y2="552.29" xlink:href="#Áåçûìÿííûé_ãðàäèåíò_87"/><linearGradient id="Áåçûìÿííûé_ãðàäèåíò_169-2" x1="11.16" y1="636.76" x2="11.16" y2="573.22" xlink:href="#Áåçûìÿííûé_ãðàäèåíò_169"/><radialGradient id="Áåçûìÿííûé_ãðàäèåíò_17" cx="-739.76" cy="546.62" r="90.94" gradientTransform="matrix(-0.24, 0, 0, 0.42, 387.73, 172.44)" gradientUnits="userSpaceOnUse"><stop offset="0" stop-color="#f16b6c"/><stop offset="1"/></radialGradient><linearGradient id="Áåçûìÿííûé_ãðàäèåíò_53" x1="637.49" y1="589.05" x2="680.62" y2="589.05" gradientTransform="translate(-370.36 209.7) rotate(-26.87)" gradientUnits="userSpaceOnUse"><stop offset="0" stop-color="#c1cbd4"/><stop offset="0.46" stop-color="#c1909c"/><stop offset="1" stop-color="#93899b"/></linearGradient><linearGradient id="Áåçûìÿííûé_ãðàäèåíò_18" x1="617.56" y1="542.33" x2="706.62" y2="542.33" gradientTransform="translate(-370.36 209.7) rotate(-26.87)" gradientUnits="userSpaceOnUse"><stop offset="0" stop-color="#e5f3fb"/><stop offset="0.46" stop-color="#c1909c"/><stop offset="1" stop-color="#93899b"/></linearGradient><linearGradient id="Áåçûìÿííûé_ãðàäèåíò_16" x1="661.47" y1="568.56" x2="661.47" y2="511.12" gradientTransform="translate(-370.36 209.7) rotate(-26.87)" gradientUnits="userSpaceOnUse"><stop offset="0" stop-color="#5e559d"/><stop offset="1" stop-color="#14133e"/></linearGradient><linearGradient id="Áåçûìÿííûé_ãðàäèåíò_53-2" x1="624.11" y1="543.96" x2="706.05" y2="543.96" xlink:href="#Áåçûìÿííûé_ãðàäèåíò_53"/><linearGradient id="Áåçûìÿííûé_ãðàäèåíò_38-3" x1="644.52" y1="575.89" x2="644.52" y2="507.93" gradientTransform="translate(-370.36 209.7) rotate(-26.87)" xlink:href="#Áåçûìÿííûé_ãðàäèåíò_38"/><linearGradient id="Áåçûìÿííûé_ãðàäèåíò_38-4" x1="667.15" y1="551.39" x2="705.16" y2="551.39" gradientTransform="translate(-370.36 209.7) rotate(-26.87)" xlink:href="#Áåçûìÿííûé_ãðàäèåíò_38"/><linearGradient id="Áåçûìÿííûé_ãðàäèåíò_53-3" x1="620.87" y1="540.51" x2="694.06" y2="540.51" xlink:href="#Áåçûìÿííûé_ãðàäèåíò_53"/><linearGradient id="Áåçûìÿííûé_ãðàäèåíò_15" x1="655.39" y1="561.48" x2="655.39" y2="517.25" gradientTransform="translate(-370.36 209.7) rotate(-26.87)" gradientUnits="userSpaceOnUse"><stop offset="0"/><stop offset="1" stop-color="#accbeb"/></linearGradient><linearGradient id="Áåçûìÿííûé_ãðàäèåíò_15-2" x1="668.36" y1="560.58" x2="668.36" y2="518.15" xlink:href="#Áåçûìÿííûé_ãðàäèåíò_15"/><linearGradient id="Áåçûìÿííûé_ãðàäèåíò_53-4" x1="640.36" y1="588.81" x2="658.88" y2="588.81" xlink:href="#Áåçûìÿííûé_ãðàäèåíò_53"/><radialGradient id="Áåçûìÿííûé_ãðàäèåíò_100" cx="755.84" cy="-79.42" r="19.13" gradientTransform="translate(202.18 253.51) scale(0.46 0.3)" gradientUnits="userSpaceOnUse"><stop offset="0" stop-color="#f37521"/><stop offset="1"/></radialGradient><linearGradient id="Áåçûìÿííûé_ãðàäèåíò_31" x1="-233.81" y1="288.54" x2="-193.49" y2="288.54" gradientTransform="matrix(-0.86, 0.51, 0.51, 0.86, 419.8, 412.63)" gradientUnits="userSpaceOnUse"><stop offset="0" stop-color="#7a3117"/><stop offset="1" stop-color="#5e1810"/></linearGradient><linearGradient id="Áåçûìÿííûé_ãðàäèåíò_31-2" x1="-213.41" y1="267.01" x2="-196.57" y2="267.01" xlink:href="#Áåçûìÿííûé_ãðàäèåíò_31"/><linearGradient id="Áåçûìÿííûé_ãðàäèåíò_19" x1="-213.65" y1="309.32" x2="-213.65" y2="269.99" gradientTransform="matrix(-0.86, 0.51, 0.51, 0.86, 419.8, 412.63)" gradientUnits="userSpaceOnUse"><stop offset="0"/><stop offset="1" stop-color="#7194c1"/></linearGradient><linearGradient id="Áåçûìÿííûé_ãðàäèåíò_115-6" x1="1380.08" y1="544.57" x2="1380.08" y2="529.03" gradientTransform="matrix(-0.97, 0.24, 0.24, 0.97, 1729.11, -435.99)" xlink:href="#Áåçûìÿííûé_ãðàäèåíò_115"/><linearGradient id="Áåçûìÿííûé_ãðàäèåíò_169-3" x1="1365.08" y1="505.31" x2="1395.04" y2="505.31" gradientTransform="matrix(-0.97, 0.24, 0.24, 0.97, 1729.11, -435.99)" xlink:href="#Áåçûìÿííûé_ãðàäèåíò_169"/><linearGradient id="Áåçûìÿííûé_ãðàäèåíò_115-7" x1="1368.64" y1="525.01" x2="1368.64" y2="483.35" gradientTransform="matrix(-0.97, 0.24, 0.24, 0.97, 1729.11, -435.99)" xlink:href="#Áåçûìÿííûé_ãðàäèåíò_115"/><linearGradient id="Áåçûìÿííûé_ãðàäèåíò_115-8" x1="1373.74" y1="522.61" x2="1373.74" y2="484.05" gradientTransform="matrix(-0.97, 0.24, 0.24, 0.97, 1729.11, -435.99)" xlink:href="#Áåçûìÿííûé_ãðàäèåíò_115"/><linearGradient id="Áåçûìÿííûé_ãðàäèåíò_115-9" x1="1471.45" y1="718.84" x2="1471.45" y2="634.69" gradientTransform="matrix(-0.7, -0.72, -0.72, 0.7, 2003.3, 969.26)" xlink:href="#Áåçûìÿííûé_ãðàäèåíò_115"/><linearGradient id="Áåçûìÿííûé_ãðàäèåíò_8" x1="1424.44" y1="599.38" x2="1477.13" y2="599.38" gradientTransform="matrix(-1, 0, 0, 1, 1917.49, -192.18)" gradientUnits="userSpaceOnUse"><stop offset="0" stop-color="#971b24"/><stop offset="1" stop-color="#ec1943"/></linearGradient><linearGradient id="Áåçûìÿííûé_ãðàäèåíò_9" x1="1461.17" y1="606.07" x2="1461.17" y2="592.9" gradientTransform="matrix(-1, 0, 0, 1, 1917.49, -192.18)" gradientUnits="userSpaceOnUse"><stop offset="0" stop-color="#fde15c"/><stop offset="0.99" stop-color="#f9a728"/></linearGradient><linearGradient id="Áåçûìÿííûé_ãðàäèåíò_9-2" x1="1472.72" y1="606.07" x2="1472.72" y2="593.72" xlink:href="#Áåçûìÿííûé_ãðàäèåíò_9"/><linearGradient id="Áåçûìÿííûé_ãðàäèåíò_14" x1="1689.05" y1="451.97" x2="1689.05" y2="258.19" gradientTransform="matrix(-0.03, 1, -1, -0.03, 1120.42, -1029.05)" gradientUnits="userSpaceOnUse"><stop offset="0" stop-color="#c82027"/><stop offset="1" stop-color="#a61e22"/></linearGradient></defs><title>fast delivery service</title><g class="cls-2"><g id="Layer_3" data-name="Layer 3"><g class="cls-3"><rect class="cls-4" x="14.1" y="3.07" width="904.61" height="757.37"/><path class="cls-5" d="M1059.69,930.64V538.11h-8v58.11h-7.58V573.81h-14.25V554h-7.57v19.78H1017V553.65H990.85v20.16h-4.72v36.81H972.47v63.91h-8.21v68.69H932.85l-3.94-122.3-28,.91-5.44,36.62v20.28L884.89,695H856.13V629.51H855V695h-5.89V651H817.44v44h-5.31v65.44H808V715.5h-3.27V557.3h-3.93V535.56l-26.06-7.77v42.82h-7.61v-76H752.83V474.74h-7.62v19.89H724.75V550.3H689V699.57H672.25V630.26H650.74V446H617.91v-48.1l-58.74,15.85.24,225h-25v39.1H509.81v84.58l-11.18-15.79h-6.75v-219h-5.51v-32.5h-5.86v-2.45H463V478.12H400.59V655.83l-12.94,16.36H377.52v28H345.23V703l-4.07-5.91V588.86h-26V559.3h-1.83l-1-30.48h-.8l-1,30.48h-1.82v29.56H294.83v42.23h-21.5V695h-1.62V629.51h-1.12v7.39H241.83L197.1,661v-50.4H183.44V574.89c-.14-.35-.25-.72-.37-1.08h-4.35V553.65H168.45v377Z" transform="translate(-140.99 -192.18)"/><polygon class="cls-6" points="870.65 760.44 870.65 295.64 833.47 275.58 800.31 275.58 800.31 267.06 799.02 267.06 799.02 342.57 797.15 342.57 797.15 268.89 772.36 268.89 772.36 220.19 756.41 220.19 756.41 186.1 754.31 186.1 753.15 150.96 752.23 150.96 751.07 186.1 748.97 186.1 748.97 220.19 718.94 220.19 718.94 345 714.24 351.82 714.24 348.52 677.01 348.52 677.01 316.27 665.34 316.27 650.41 297.41 650.41 92.5 578.52 92.5 578.52 109.35 558.26 109.35 558.26 112.17 551.5 112.17 551.5 149.64 545.15 149.64 545.15 402.13 537.37 402.13 524.48 420.35 524.48 322.82 496.15 322.82 496.15 277.74 467.29 277.74 467.57 18.27 399.84 0 399.84 55.45 361.98 55.45 361.98 267.92 337.18 267.92 337.18 347.85 317.87 347.85 317.87 175.72 276.64 175.72 276.64 111.53 253.05 111.53 253.05 88.61 244.27 88.61 244.27 111.53 227.76 111.53 227.76 199.14 218.98 199.14 218.98 149.78 188.93 158.74 188.93 183.8 184.4 183.8 184.4 366.21 180.63 366.21 180.63 418.01 175.89 418.01 175.89 342.57 169.77 342.57 169.77 291.81 133.23 291.81 133.23 342.57 126.44 342.57 126.44 267.06 125.15 267.06 125.15 342.57 92 342.57 79.85 323.81 79.85 300.43 73.57 258.21 41.24 257.16 32.1 320.72 32.1 353.23 18.63 398.17 0.48 398.17 0.48 318.98 0 318.98 0 760.44 870.65 760.44"/></g><path class="cls-7" d="M429.08,677.61c-3.68,6.44-4.93,12.65-2.8,13.87s6.84-3,10.52-9.47,4.92-12.65,2.79-13.87S432.75,671.16,429.08,677.61Z" transform="translate(-140.99 -192.18)"/><path class="cls-8" d="M424.93,690a2.39,2.39,0,0,0,.88,1.17.58.58,0,0,0,.23.09c2,.65,6.28-3.62,9.82-9.83s5-12.06,3.46-13.44a.74.74,0,0,0-.2-.16,2.3,2.3,0,0,0-1.46-.16c-2.64.36-7.31,3.24-10.33,8.17l-.32.55C424,681.7,423.87,687.51,424.93,690Z" transform="translate(-140.99 -192.18)"/><path class="cls-9" d="M424.93,690a3,3,0,0,0,.4-.24c1.81-1.27,4.77-5.12,7.56-10s4.59-9.4,4.76-11.61a3.84,3.84,0,0,0,0-.47c-2.64.36-7.31,3.24-10.33,8.17l-.32.55C424,681.7,423.87,687.51,424.93,690Z" transform="translate(-140.99 -192.18)"/><path class="cls-10" d="M427.42,676.87c-.8,1.31-.64,2.86.35,3.46s2.43,0,3.23-1.28.64-2.87-.35-3.47S428.22,675.56,427.42,676.87Z" transform="translate(-140.99 -192.18)"/><path class="cls-11" d="M400.5,724.15a1.24,1.24,0,0,0,1.15-.78l16.86-42.47,10.8-2.07a1.24,1.24,0,0,0,1-1.45,1.22,1.22,0,0,0-1.44-1l-11.48,2.2a1.23,1.23,0,0,0-.91.76l-17.11,43.11a1.24,1.24,0,0,0,.69,1.6A1.25,1.25,0,0,0,400.5,724.15Z" transform="translate(-140.99 -192.18)"/><path class="cls-12" d="M608.77,920.28a29.44,29.44,0,1,0,29.43-29.44A29.43,29.43,0,0,0,608.77,920.28Z" transform="translate(-140.99 -192.18)"/><path class="cls-8" d="M620,920.28a17,17,0,1,0,17-17A17,17,0,0,0,620,920.28Z" transform="translate(-140.99 -192.18)"/><path class="cls-13" d="M631.25,920.28a5.72,5.72,0,1,0,5.72-5.72A5.72,5.72,0,0,0,631.25,920.28Z" transform="translate(-140.99 -192.18)"/><path class="cls-14" d="M582.35,921.92a55.85,55.85,0,1,0,55.85-55.85A55.84,55.84,0,0,0,582.35,921.92Zm22.36-1.64a32.19,32.19,0,1,1,32.19,32.18A32.19,32.19,0,0,1,604.71,920.28Z" transform="translate(-140.99 -192.18)"/><path class="cls-13" d="M593.9,921.92a44.31,44.31,0,1,0,44.3-44.31A44.3,44.3,0,0,0,593.9,921.92Zm17.74-1.31a25.53,25.53,0,1,1,25.53,25.54A25.53,25.53,0,0,1,611.64,920.61Z" transform="translate(-140.99 -192.18)"/><path class="cls-14" d="M585.26,920.28a51.65,51.65,0,1,0,51.64-52A51.82,51.82,0,0,0,585.26,920.28Zm19.45,0a32.19,32.19,0,1,1,32.19,32.18A32.19,32.19,0,0,1,604.71,920.28Z" transform="translate(-140.99 -192.18)"/><path class="cls-12" d="M287.65,920.28a29.44,29.44,0,1,0,29.43-29.43A29.44,29.44,0,0,0,287.65,920.28Z" transform="translate(-140.99 -192.18)"/><path class="cls-8" d="M298.86,920.28a17,17,0,1,0,17-17A17,17,0,0,0,298.86,920.28Z" transform="translate(-140.99 -192.18)"/><path class="cls-14" d="M261.23,921.93a55.85,55.85,0,1,0,55.85-55.85A55.84,55.84,0,0,0,261.23,921.93Zm22.36-1.65a32.19,32.19,0,1,1,32.19,32.19A32.19,32.19,0,0,1,283.59,920.28Z" transform="translate(-140.99 -192.18)"/><path class="cls-13" d="M272.78,921.93a44.31,44.31,0,1,0,44.3-44.31A44.3,44.3,0,0,0,272.78,921.93Zm17.74-1.3a25.53,25.53,0,1,1,25.53,25.53A25.53,25.53,0,0,1,290.52,920.63Z" transform="translate(-140.99 -192.18)"/><path class="cls-14" d="M264.14,920.28a51.65,51.65,0,1,0,51.64-52A51.82,51.82,0,0,0,264.14,920.28Zm19.45,0a32.19,32.19,0,1,1,32.19,32.19A32.19,32.19,0,0,1,283.59,920.28Z" transform="translate(-140.99 -192.18)"/><path class="cls-11" d="M311.35,918a19.33,19.33,0,0,1,4.8,2.6c.6.49,1,1,.94,1.37-.19,1.56,29.34-39.5,29.43-39.61l-2.83-3.8-2.7-3.62-4.79,6.77L313.41,914.8Z" transform="translate(-140.99 -192.18)"/><path class="cls-10" d="M311.68,916.37c.1.23,1.25-.65,1.22-.48-.28,1.35,23.69-33.1,23.75-33.19l-.45-1Z" transform="translate(-140.99 -192.18)"/><path class="cls-10" d="M316.15,920.55c.6.49,1,1,.94,1.37-.19,1.56,29.34-39.5,29.43-39.61l-2.83-3.8Z" transform="translate(-140.99 -192.18)"/><path class="cls-13" d="M310.13,920.28a5.72,5.72,0,1,0,5.72-5.71A5.72,5.72,0,0,0,310.13,920.28Z" transform="translate(-140.99 -192.18)"/><path class="cls-15" d="M290.21,872.49h.09c16.1,1.62,34.2,12,46.1,22.68,11.27,10.11,14.67,23.77,24,34.85,2.35,2.78,4.74,5,6.8,7.67a54.25,54.25,0,0,0-77-65.2Z" transform="translate(-140.99 -192.18)"/><path class="cls-16" d="M728.39,872.5H698.53v12.25h29.84a6.13,6.13,0,0,0,6.14-6.13h0A6.12,6.12,0,0,0,728.39,872.5Z" transform="translate(-140.99 -192.18)"/><path class="cls-17" d="M722,831.78l.63.72a11.48,11.48,0,0,1,2.6,7.54v18.31c0,4-2.29,7.3-5.23,7.52h0c-1.51.12-2.87-1.27-3.21-3.29-1.09-6.57-2.88-20.89.47-29.54C718.21,830.67,720.51,830.07,722,831.78Z" transform="translate(-140.99 -192.18)"/><polygon class="cls-18" points="570.79 628.98 580.14 636.85 580.14 674.81 566.94 678.59 570.79 628.98"/><path class="cls-15" d="M576.9,906.27a32.32,32.32,0,0,0,4.83,12.66c4.1,6.45,2.48,14.22,4.93,21.08,1.28-.09,19.32-21.7,46.65-29,40.11-10.75,58.31,4.58,56.57-2-2.35-9-11.89-20.86-17-25.93-11.86-11.88-24-21.51-40.49-21.51-15.79,0-32.44,4.94-44.24,15.77C579.58,885.2,575.34,895.71,576.9,906.27Z" transform="translate(-140.99 -192.18)"/><path class="cls-14" d="M530.23,916.4l.22-.16c2.39-1.74,14.94-24.67,17.36-23a97.36,97.36,0,0,1,7.87,6.16c1.53-14,13.71-26.35,30.37-29.49,19.8-3.72,38.44,7,41.63,24s-10.27,33.75-30.07,37.47c-3.35.63-50.88.12-64.72-2.75A6.84,6.84,0,0,1,530.23,916.4Z" transform="translate(-140.99 -192.18)"/><path class="cls-19" d="M562.47,906.17c2.62,13.9,17.88,22.7,34.1,19.65S623.8,909,621.19,895.13s-17.88-22.69-34.09-19.64S559.86,892.27,562.47,906.17Zm3.58-.67c-2.3-12.21,7.38-24.28,21.63-27s27.64,5,29.94,17.25-7.39,24.28-21.63,27S568.34,917.71,566.05,905.5Z" transform="translate(-140.99 -192.18)"/><path class="cls-19" d="M569.44,906.35l45.34-8.52a1.36,1.36,0,0,0,1.08-1.58h0a1.36,1.36,0,0,0-1.58-1.08l-45.34,8.53a1.34,1.34,0,0,0-1.07,1.57h0A1.34,1.34,0,0,0,569.44,906.35Z" transform="translate(-140.99 -192.18)"/><path class="cls-19" d="M573.44,912.11l39.71-7.47a1.36,1.36,0,0,0,1.08-1.58h0a1.35,1.35,0,0,0-1.58-1.07l-39.71,7.46a1.36,1.36,0,0,0-1.08,1.58h0A1.36,1.36,0,0,0,573.44,912.11Z" transform="translate(-140.99 -192.18)"/><path class="cls-19" d="M579.05,917.42l30.8-5.79a1.35,1.35,0,0,0,1.07-1.58h0a1.35,1.35,0,0,0-1.57-1.08l-30.8,5.79a1.35,1.35,0,0,0-1.07,1.58h0A1.34,1.34,0,0,0,579.05,917.42Z" transform="translate(-140.99 -192.18)"/><path class="cls-19" d="M588.49,920.68l13.75-2.58a1.36,1.36,0,0,0,1.08-1.58h0a1.35,1.35,0,0,0-1.58-1.08L588,918a1.35,1.35,0,0,0-1.08,1.58h0A1.35,1.35,0,0,0,588.49,920.68Z" transform="translate(-140.99 -192.18)"/><path class="cls-19" d="M610.42,890.09l-39.72,7.46a1.36,1.36,0,0,0-1.08,1.58h0a1.36,1.36,0,0,0,1.58,1.08l39.71-7.47a1.36,1.36,0,0,0,1.08-1.58h0A1.34,1.34,0,0,0,610.42,890.09Z" transform="translate(-140.99 -192.18)"/><path class="cls-19" d="M604.8,884.78,574,890.57a1.34,1.34,0,0,0-1.07,1.57h0a1.34,1.34,0,0,0,1.57,1.08l30.8-5.79a1.35,1.35,0,0,0,1.08-1.57h0A1.35,1.35,0,0,0,604.8,884.78Z" transform="translate(-140.99 -192.18)"/><path class="cls-19" d="M595.37,881.51l-13.76,2.59a1.36,1.36,0,0,0-1.08,1.58h0a1.35,1.35,0,0,0,1.58,1.07l13.75-2.58a1.35,1.35,0,0,0,1.08-1.58h0A1.34,1.34,0,0,0,595.37,881.51Z" transform="translate(-140.99 -192.18)"/><path class="cls-8" d="M389,917.33c-.43-10.2-3.72-32.58-22.44-55.73-16.06-17.64-52.82-31.15-97.75,1.93l-.13.09a2.11,2.11,0,0,0,1.28,3.85c30.35-1.52,64,7.18,83.75,31.76,4.76,6,8.87,13.09,13.94,18.73,3.52,3.93,10.66,4.3,15.68,4.76A5.2,5.2,0,0,0,389,917.33Z" transform="translate(-140.99 -192.18)"/><path class="cls-20" d="M370.19,893.26c2.34-1,1.8-5.79.31-11-5.75-20-27.81-30.7-47.66-30.7-9.61,0-28.44,2.82-39.57,8.11a1,1,0,0,0,.3,1.84c20.4,2.16,40,.59,57.95,11,7.63,4.43,14.59,13.1,21.78,18.23C366.7,893.16,368.89,893.8,370.19,893.26Z" transform="translate(-140.99 -192.18)"/><path class="cls-8" d="M408.8,752.71l13.4-23.56a1.92,1.92,0,0,0-.31-2.29L403,708a15.24,15.24,0,0,0-6.21-3.74l-15.89-4.9a1.9,1.9,0,0,0-2.43,1.43l-5.75,27.78a1.92,1.92,0,0,0,1.69,2.29l12.89,1.27A1.91,1.91,0,0,1,389,734v1.07a1.9,1.9,0,0,1-1.58,1.88h0a1.91,1.91,0,0,0-.73,3.47l19.37,12.91A1.91,1.91,0,0,0,408.8,752.71Z" transform="translate(-140.99 -192.18)"/><path class="cls-9" d="M378.37,701.26h-.93a7.35,7.35,0,0,0-7.35,7.34v15.65a9.26,9.26,0,0,0,1.13,4.43l3.19,2.17Z" transform="translate(-140.99 -192.18)"/><path class="cls-21" d="M700.37,798.05l-1.79,4.36a20.92,20.92,0,0,1-5.81,8L685,817l21.49,4.44h0a22.61,22.61,0,0,1,17.67-22.7c2.28-.51,3.81-.72,3.81-.72Z" transform="translate(-140.99 -192.18)"/><path class="cls-8" d="M482.55,817.24c-.94-2.72-1.69-4.64-1.95-4.62L625.91,801l5,12.25,69.49.3A12.41,12.41,0,0,1,712.75,826l-.2,44.87-147.17-4.29s-7.26,7.58-14.41,15.27c-6.27.6-14.29,2.76-24.34,7.22-4.49,2-9.31,3.93-14.32,5.78A38.23,38.23,0,0,0,514.8,883C515.47,870.1,492.3,831.31,482.55,817.24Z" transform="translate(-140.99 -192.18)"/><path class="cls-8" d="M430.31,914.58c18.07-3.32,38.53-3.71,54.19-14.48,10.42-7.16,15-19,14.53-31.36-.49-12.86-6.48-21.43-11-34.39-.35-1-3.36-11-5.45-17.11,9.75,14.07,32.92,52.86,32.25,65.78a38.23,38.23,0,0,1-2.49,11.87c-31.33,11.59-70.8,20.09-93,21.85C423.25,916.1,427.1,915.18,430.31,914.58Z" transform="translate(-140.99 -192.18)"/><path class="cls-22" d="M386.76,865.47c.11.23.21.45.31.68s.12.29.19.43c.16.38.33.76.48,1.14a.54.54,0,0,0,.05.11c.16.41.31.82.45,1.21.05.11.08.23.13.35s.19.53.27.78.09.26.13.39.15.47.21.7.08.23.11.35.14.51.21.75a1.17,1.17,0,0,0,.06.2c.07.3.14.6.21.88a1.3,1.3,0,0,1,0,.21c.05.21.09.4.13.59s0,.17.05.25.06.32.09.47,0,.16,0,.23.05.3.06.43l0,.16c0,.18.05.34.06.49s0,.06,0,.09a1.82,1.82,0,0,1,0,.32s0,.07,0,.11,0,.14,0,.19v.08a.72.72,0,0,1,0,.13v0a.22.22,0,0,0,0,.06l5.17-3.52a25.15,25.15,0,0,0,4.33-3.69A19.64,19.64,0,0,0,405.28,856l-1.65-53.11a4.59,4.59,0,0,0-1.89-3.46,6.87,6.87,0,0,0-3.27-1.34,6.71,6.71,0,0,0-1.1-.09c-4.19,0-7-1.77-7.68-4.35C386,808.08,382.11,834.93,386.76,865.47Z" transform="translate(-140.99 -192.18)"/><path class="cls-20" d="M398.49,863.08c.11.23.2.45.31.68s.13.28.18.41c.18.4.33.78.48,1.15a.61.61,0,0,1,.05.12c.17.41.32.81.46,1.2l.13.35c.1.27.19.53.27.79l.12.39c.09.24.15.47.23.69s.06.24.1.36l.21.75,0,.1A19.64,19.64,0,0,0,406.68,856L405,802.85a4.59,4.59,0,0,0-1.89-3.46,6.87,6.87,0,0,0-3.27-1.34A191.82,191.82,0,0,0,398.49,863.08Z" transform="translate(-140.99 -192.18)"/><path class="cls-8" d="M381.6,848.3l-.49-.72c-.42-.61-.84-1.23-1.27-1.84-.23-.33-.47-.65-.71-1-.55-.76-1.1-1.51-1.68-2.24a62.89,62.89,0,0,1-4.09-5.41,34.07,34.07,0,0,1-4.42-25c1-4.64,2.84-9.14,4.4-13.6q2.54-7.26,5.12-14.49,3.39-9.45,6.87-18.85c.71-1.9,1.41-3.81,2.12-5.71.41-1.11.82-2.23,1.24-3.34s.83-2.19,1.24-3.29q1.65-4.4,3.31-8.78l10.39,5.59c.29.16.25.13.14.43-.21.55-.42,1.1-.62,1.65Q402,754.89,400.8,758l-8.54,22.8c-.84,2.23-2.21,4.8-2.08,7.24a4.7,4.7,0,0,1,0,1.35c-.06.32-.12.64-.19,1-.14.73-.27,1.47-.41,2.2-.27,1.55-.53,3.11-.76,4.66a225.35,225.35,0,0,0-2.3,23.48A237.62,237.62,0,0,0,388,860.78l-.36-.91-.09-.25A61.21,61.21,0,0,0,381.6,848.3Z" transform="translate(-140.99 -192.18)"/><path class="cls-20" d="M378.28,750.41a17.21,17.21,0,0,1,18.46-1.86c.31.16.45.1.31.47l-.3.8c-.2.53-.4,1.06-.61,1.59-.42,1.11-.84,2.22-1.25,3.33-.36.93-.7,1.87-1.06,2.81-.41,1.1-.83,2.19-1.24,3.29l-1.23,3.34c-.71,1.9-1.41,3.8-2.12,5.71q-3.47,9.4-6.87,18.84-2.6,7.24-5.12,14.5c-1.56,4.46-3.44,9-4.4,13.59a34.13,34.13,0,0,0,4.41,25,65.4,65.4,0,0,0,4.09,5.4c.59.74,1.14,1.49,1.69,2.25.24.32.48.64.71,1,.43.61.85,1.22,1.27,1.84l.49.72a60.52,60.52,0,0,1,4,7.11c.09.17.18.33.26.51s.09.2.14.3.24.51.35.76c.29.63.56,1.25.82,1.89l.3.74a2.77,2.77,0,0,1,.1.26,8.07,8.07,0,0,1,.48,2q.6,4.71,1.4,9.41a92.26,92.26,0,0,1,1,11.14c0,.93.05,1.85.09,2.78a74.3,74.3,0,0,0,1.89,14.64c1,3.85,2.45,8.35,5.82,10.77a13.06,13.06,0,0,0,5.79,2,31.07,31.07,0,0,0,7.34,0c2-.19,4-.51,6-.69q2.26-.21,4.53-.48c3.36-.4,6.72-.88,10.07-1.41,7.75-1.23,15.46-2.73,23.13-4.43a417.47,417.47,0,0,0,50-14.16q5.82-2.08,11.54-4.4c4.15-1.7,8.2-3.6,12.4-5.2,7.59-2.88,16-5.41,24.27-4.67,3.79.34,7.83,1.52,10.33,4.57a8.58,8.58,0,0,1,.24,10.35,15.56,15.56,0,0,1-3.73,3.37c-1.37,1-2.71,2.12-4,3.23-3.26,2.76-6.38,5.69-9.45,8.66-6.84,6.62-13.45,13.48-20.06,20.33q-2.72,2.8-5.41,5.62a34.73,34.73,0,0,1-5.29,4.85c-3.36,2.28-7.17,3.16-11.12,3.77a121.83,121.83,0,0,1-22.09,1.13c-8.2-.22-16.38-1-24.52-2a455.94,455.94,0,0,1-45.33-8.3c-2.92-.68-5.87-1.32-8.77-2.12a20.34,20.34,0,0,1-13.82-13A30.65,30.65,0,0,1,393,916.2c-.5-3.92-1.05-7.83-1.72-11.73-1.49-8.75-3.53-17.51-7.08-25.68a60.74,60.74,0,0,0-14.3-20.22,71.24,71.24,0,0,0-17.68-12c-.46-.23-.93-.44-1.4-.66C344.19,823.11,367.55,772,378.28,750.41Z" transform="translate(-140.99 -192.18)"/><path class="cls-20" d="M336.67,839.36c.08-.61-.09-.22.06-.82a124.58,124.58,0,0,1,5.92-16.31c5.33-12.73,11.2-25.23,17.12-37.69q6.74-14.17,13.67-28.24a17.05,17.05,0,0,1,4.84-5.89C367.55,772,344.19,823.11,350.86,846q-3.44-1.58-7-2.85c-1.25-.44-2.52-.86-3.79-1.25A26.55,26.55,0,0,1,337,841C336.5,840.74,336.61,839.83,336.67,839.36Z" transform="translate(-140.99 -192.18)"/><path class="cls-13" d="M398.25,929.2a20.34,20.34,0,0,0,10.31,6.23c24.37,6,74.83,16.74,104.27,10.39a20.29,20.29,0,0,0,10.3-5.77c8-8.28,15-15.56,21.12-21.74C526.71,925.17,486.55,933.74,398.25,929.2Z" transform="translate(-140.99 -192.18)"/><path class="cls-18" d="M529.1,926.42s-9.35,16-25.31,16.51c-17.61.55-71.75-3.06-81.5-8.08C484,934.68,514,934.53,529.1,926.42Z" transform="translate(-140.99 -192.18)"/><path class="cls-8" d="M624.68,817a145.4,145.4,0,0,1,56.73,27.37c12.51,9.88,23.94,22,31.68,36,2.38,4.32,4.65,9,5.46,14a11.63,11.63,0,0,1,.05,4.7,5.18,5.18,0,0,1-.37,1C703.47,875.18,673,834.31,624.68,817Z" transform="translate(-140.99 -192.18)"/><path class="cls-8" d="M518.63,889.37c5-40.75,36.67-72.14,75.1-76.12a19,19,0,0,1,2.82-.08,152.08,152.08,0,0,1,26.72,3.52l1.41.34c48.29,17.28,78.79,58.15,93.55,83a5,5,0,0,1-1.78,2c-2.4,1.56-6.13,1.54-8.79,1.24a30.43,30.43,0,0,1-11.5-4.28,86.45,86.45,0,0,0-12.34-5.32c-27.29-10.38-57-10.81-85.48-5.83-22.44,3.93-43.77,11.47-65.51,18C524.84,908.16,517.36,899.62,518.63,889.37Z" transform="translate(-140.99 -192.18)"/><path class="cls-20" d="M528.65,886.39c35-24.88,102.6-31.14,153.56-15.34,2,.63,18,4.32,18.16,4.53-15-23.84-45.09-44.67-71.73-53-28.15-8.86-58.62-4.7-80,16.79A89.43,89.43,0,0,0,534,859.1c-3,5.48-9.49,15.64-10.41,21.73C522.83,885.85,525.77,888.43,528.65,886.39Z" transform="translate(-140.99 -192.18)"/><path class="cls-23" d="M538.23,867.75l.67-1.17c.78-1.34,1.48-2.57,2.07-3.63a81.26,81.26,0,0,1,13.37-18c12.21-12.3,28.36-18.8,46.69-18.8a84.09,84.09,0,0,1,25.22,4c14.41,4.54,29.19,12.66,41.8,22.51,2,1.55-37.91-19.54-64.7-17.21C557.4,839.45,537,869.82,538.23,867.75Z" transform="translate(-140.99 -192.18)"/><path class="cls-13" d="M478.4,812.07c.09,7.7,46.31,19,74.37,8.15,22.57-8.76,54.75-18.67,75.92-19.35a7.52,7.52,0,0,0,5.44-12.42c-13.77-16.28-26-16-42.44-3.44-11.61,8.87-24.62,12.27-38.25,15.53-14,3.36-25,7-39.74,3.58S481,787.51,478.4,812.07Z" transform="translate(-140.99 -192.18)"/><path class="cls-24" d="M482.93,799.7c7.27,7.33,43.15,15.42,65.86,5.66,20.39-8.76,49.46-18.66,68.59-19.34,3.9-.14,6.49-3.65,6.55-7.39-11.35-8.49-24-10.13-39.32-3.36-20.18,8.92-39,21-62.1,17.55C500.14,789.47,488.56,792.66,482.93,799.7Z" transform="translate(-140.99 -192.18)"/><path class="cls-13" d="M412,921.36c14.67,0,29.28-2.74,43.42-6.49,5.53-1.46,11.62-2.46,17-4.78,4.57-2,11-4.85,14-11.43-3.17,3.28-30.38,12.63-54.62,15.57a166.61,166.61,0,0,1-19.05,1.58c-6,0-10.69.19-14.4-5.06C396.2,919.05,405.87,921.36,412,921.36Z" transform="translate(-140.99 -192.18)"/><path class="cls-16" d="M643.51,793.6c0,3.26,1.69,5.9,3.78,5.9H732.7a3.3,3.3,0,0,0,2.68-1.72,7.81,7.81,0,0,0,1.11-4.18c0-3.25-1.7-5.89-3.79-5.89H647.29a3.32,3.32,0,0,0-2.68,1.72A7.92,7.92,0,0,0,643.51,793.6Z" transform="translate(-140.99 -192.18)"/><path class="cls-16" d="M643.51,793.6h93c0-3.25-1.7-5.89-3.79-5.89H647.29a3.32,3.32,0,0,0-2.68,1.72A7.92,7.92,0,0,0,643.51,793.6Z" transform="translate(-140.99 -192.18)"/><path class="cls-11" d="M403.26,721h0a4.74,4.74,0,0,1,6.64.54l12.75,16-1.36-.13-.51,5.09h-4a1.91,1.91,0,0,0,1-1c.08-.2-.22-.37-.37-.21a1.32,1.32,0,0,1-1,.43h0c.05-.5-.53-.75-.93-.58,0-.32,0-.63,0-.93a1,1,0,0,0-1.2-.91,1.57,1.57,0,0,0-1,.63l-10.52-12.26A4.7,4.7,0,0,1,403.26,721Z" transform="translate(-140.99 -192.18)"/><path class="cls-13" d="M404.67,734.86c1.83,3.16,6.59,3.45,10,1s4.54-6.8,2.44-9.8-6.74-3.65-10-1S402.56,731.22,404.67,734.86Z" transform="translate(-140.99 -192.18)"/><path class="cls-13" d="M418,726.63,416.13,725a6.87,6.87,0,0,0-1.84-.82l-3.7.38Z" transform="translate(-140.99 -192.18)"/><path class="cls-11" d="M405.26,735.15c1.58,2.66,5.82,3.06,9.47.89s5.33-6.08,3.75-8.74-5.82-3.06-9.47-.9S403.68,732.48,405.26,735.15Z" transform="translate(-140.99 -192.18)"/><path class="cls-10" d="M406.37,734.76c1.29,2.41,4.91,3,8.09,1.29s4.73-5,3.44-7.44-4.9-3-8.09-1.28S405.09,732.35,406.37,734.76Z" transform="translate(-140.99 -192.18)"/><path class="cls-13" d="M410.47,728.51c3.2-1.88,5.87-1,7.32.43,4.39,5.41,10.63,10.21,14.8,16.88.12.17,0,.6-.12.8-.32,1-.49,1.47-.86,2.47-.88-.18-1.76-.35-2.63-.5l-.27,1.49a4.78,4.78,0,0,0-3.1.62c-4.89-5.51-12.74-9.59-18.56-15.32C406,733.58,407.94,730.18,410.47,728.51Z" transform="translate(-140.99 -192.18)"/><path class="cls-11" d="M426.4,745.91c-1.59,1.87-1.74,4.35-.34,5.55s3.84.66,5.43-1.2,1.74-4.34.34-5.54S428,744.05,426.4,745.91Z" transform="translate(-140.99 -192.18)"/><path class="cls-25" d="M391.94,668.87c22.31,19.38,50.3,28.88,78.08,38,2.36.78,4.65,1.74,7.36,1.15,4.8-1,7.95-6.64,9.4-11,1-3.1.47-5.66,1.85-8.53-11.25-1.47-21.3-4-32.43-6.85-12.52-3.26-26-5.82-38.4-10.3-3.1-1.12-6.08-2.42-9.48-2.81s-6.09.82-9.36,2A6.8,6.8,0,0,1,391.94,668.87Z" transform="translate(-140.99 -192.18)"/><path class="cls-25" d="M475.51,706c8.05,2,19.63-16.5,23.4-22,3.35-4.91,6.35-10.17,7.77-15.94,1.74-7.16.5-20.43-7.84-23.92-7.16-3-16.34,13.06-16,13.35-2.94,6-5.59,12.29-8,18.51S464.7,703.28,475.51,706Z" transform="translate(-140.99 -192.18)"/><path class="cls-26" d="M382.71,656.22c.9,7.43,9.25,14.7,16,17,3.46,1.16,7.74,2.11,11.38,1.43,1.52-.28,4.09-1,4.43-2.82.4-2.13-2.41-3.9-3.2-5.63a77.1,77.1,0,0,0-3.82-7.6c-2.78-4.66-6.63-9-12.13-10.22C388.7,646.84,381.68,647.79,382.71,656.22Z" transform="translate(-140.99 -192.18)"/><path class="cls-27" d="M388.06,638.27c.18.16.38.28.56.46,4.9,4.78,9.43,10.6,13.94,15.95,1.72,2,2.76,3.59,2.72,5.57-2.8,2.66-5.59,5.21-9,6.75a30.86,30.86,0,0,1-4.22,1.51c-2.79-2.85-5.33-7.45-6.84-9.72a111.2,111.2,0,0,1-10.58-20.58A130.84,130.84,0,0,0,388.06,638.27Z" transform="translate(-140.99 -192.18)"/><path class="cls-28" d="M387.86,639.53c.15.13.3.23.45.38,4,4,7.72,8.86,11.43,13.35,1.41,1.7,2.29,3,2.39,4.78-1.9,2.52-3.79,4.94-6.22,6.5a19.91,19.91,0,0,1-3,1.58c-2.27-2.37-4.46-6.31-5.74-8.23a107.29,107.29,0,0,1-9.24-17.64A82.5,82.5,0,0,0,387.86,639.53Z" transform="translate(-140.99 -192.18)"/><path class="cls-26" d="M400.07,655.68c1.29.91,3.29,1.7,4.33,2.87.67.76.39,1.77.73,2.77.55,1.61,1.6,1.61,2.78,2.43,1,.71,1.62,2,3.22,2.26-.16-3.19.66-8-1.62-10.6s-6.91-3.93-10.1-5.11a1.24,1.24,0,0,0-1.51.86C397.17,653.22,398.48,654.56,400.07,655.68Z" transform="translate(-140.99 -192.18)"/><path class="cls-7" d="M405.46,669.35c0,7.42,2,13.43,4.47,13.43s4.43-6,4.42-13.44-2-13.43-4.46-13.43S405.45,661.93,405.46,669.35Z" transform="translate(-140.99 -192.18)"/><path class="cls-8" d="M403.08,669.36c0,6.08,2.8,11.22,5,12.86a2.25,2.25,0,0,0,1.32.56c2.15,0,3.88-6,3.87-13.44s-1.76-13.43-3.92-13.43a2.32,2.32,0,0,0-1.32.57c-2.09,1.58-4.73,6.39-4.93,12.15C403.08,668.87,403.08,669.12,403.08,669.36Z" transform="translate(-140.99 -192.18)"/><path class="cls-9" d="M403.08,669.36c0,6.08,2.8,11.22,5,12.86,1.07-1.65,1.85-6.79,1.84-12.87s-.81-11.22-1.89-12.87c-2.09,1.58-4.73,6.39-4.93,12.15C403.08,668.87,403.08,669.12,403.08,669.36Z" transform="translate(-140.99 -192.18)"/><path class="cls-10" d="M403.39,670.25c.24,1.52,1.36,2.6,2.5,2.43s1.88-1.55,1.64-3.07-1.35-2.6-2.49-2.43S403.16,668.74,403.39,670.25Z" transform="translate(-140.99 -192.18)"/><path class="cls-11" d="M403.16,724.11l.17,0a1.23,1.23,0,0,0,1.06-1.39l-5.9-43.28,7.91-9.26a1.24,1.24,0,1,0-1.88-1.61l-8.28,9.68a1.24,1.24,0,0,0-.28,1l6,43.82A1.25,1.25,0,0,0,403.16,724.11Z" transform="translate(-140.99 -192.18)"/><path class="cls-29" d="M442.88,907.51c3.29-3.22-31-125.22-31-125.22l74.59-31.6c16.5,5.47,31.89,13.79,44.1,24.75-4.73,8.68-9.14,15.87-10.89,16.23-4.52.93-66.1,10.94-66.1,10.94l4,110.41L447.38,916l-15.3,1.48s-5.89-1-6-3.45S439.59,910.74,442.88,907.51Z" transform="translate(-140.99 -192.18)"/><path class="cls-30" d="M459.54,905.1c3.12-3.06-29.38-118.75-29.38-118.75l70.73-30c15.65,5.19,30.24,13.08,41.83,23.48-4.49,8.22-8.67,15-10.33,15.39-4.29.87-62.68,10.37-62.68,10.37l3.75,104.7-9.65,2.78-14.51,1.41s-5.59-1-5.67-3.28S456.42,908.16,459.54,905.1Z" transform="translate(-140.99 -192.18)"/><path class="cls-31" d="M495.94,756.7l24.74-6.6S487.57,684.72,489.93,655c1-13.2,11.18-20.67,12.6-21.07,7.12-2,24.55-7.36,36.07,2.44,13.83,11.77,34.08,77.17,34.68,94.06l-4,21.48s-8.53,20.66-25.11,37.24C532,778.13,512.44,762.18,495.94,756.7Z" transform="translate(-140.99 -192.18)"/><path class="cls-32" d="M520.58,632.53l-19.94-16s-10.94,1-12.49,6.58c-1.37,4.88,11.37,15.41,18.3,23.84a4.65,4.65,0,0,0,6.44.64C517,644.27,522.59,638.39,520.58,632.53Z" transform="translate(-140.99 -192.18)"/><path class="cls-33" d="M488.28,623.15c1.56-5.58,12.5-6.58,12.5-6.58l2.86,2.3c-.14,2.48-.77,11.78-2.71,18a7.38,7.38,0,0,1-1.31,2.45C493.49,633,487.31,626.62,488.28,623.15Z" transform="translate(-140.99 -192.18)"/><path class="cls-32" d="M491.69,606.08l8.95,10.49s-.47,10.3-2.58,16.89-16.22,10.14-21.49,5.65c-.93-.79-1.54-1.43-1.54-1.43,1.28-1.35,3.53-4.18,3.61-7.37a22.39,22.39,0,0,1-6.83,3.42c0-.21-2.44-4.63-2.44-4.63l-2.64,1.25s-5.57-16.35-5.8-23.05S484.11,597.6,491.69,606.08Z" transform="translate(-140.99 -192.18)"/><path class="cls-34" d="M503.59,755s-1-3.11-2.47-8.28c12-8.9,5.13-87.83,25.88-98,0,0,8.93-3.87,16.45,7.7,7.38,11.33-2.56,98.32-29.82,108.8-5.18-3.86-12.35-5.3-17.21-7.84Z" transform="translate(-140.99 -192.18)"/><path class="cls-35" d="M500.15,740.11c13.62-10,4.47-97.39,31.17-92C503.11,640.71,511.34,730.47,500.15,740.11Z" transform="translate(-140.99 -192.18)"/><path class="cls-36" d="M524.93,648.36s8.69-3.58,16.08,7.3-4.39,97.52-32.15,104.17-81.24-22-81.24-22l1.26-9.95s59.57,20.51,71.27,12.27S504.73,657.81,524.93,648.36Z" transform="translate(-140.99 -192.18)"/><path class="cls-32" d="M411.82,728.56a18.71,18.71,0,0,1,10.2-1.79l5.2.66a32.4,32.4,0,0,1,7.72,2.46c6,3.21-6.68,14.38-7.15,14.72s-2.18,0-3.8-.18-2.1-2.67-2.1-2.67,0,1.26-.31,1.56c-.78.82-3.74.12-5.14-.06-1.22-.15-1.2-2-1.14-2.5a8.7,8.7,0,0,1-.35,1.29c-.3.58-2.44.49-3.92-.21C409.1,740.94,409.41,729.84,411.82,728.56Z" transform="translate(-140.99 -192.18)"/><path class="cls-37" d="M512,625.67a45.36,45.36,0,0,1-3.69-16.11c-.32-9-3.08-16.47-10.83-16.2s-8.28-1-16-5.33c-17.49-9.73-35,13.86-20.2,17.86s17.29-5.74,22-1.74,4,11.18,12.17,15.41A77.16,77.16,0,0,0,512,625.67Z" transform="translate(-140.99 -192.18)"/><path class="cls-38" d="M470.22,616.62c.65,1.08,1.74,1.67,2.44,1.32s.74-1.51.09-2.59-1.74-1.67-2.44-1.32S469.57,615.54,470.22,616.62Z" transform="translate(-140.99 -192.18)"/><path class="cls-38" d="M474.23,610.46s-4.68-1.49-7.2,0-2.72,1.78-1.85,2.52,2.15-1,4.29-1.65A27.69,27.69,0,0,1,474.23,610.46Z" transform="translate(-140.99 -192.18)"/><path class="cls-32" d="M485.25,610.84s-2.64-7.67,3-5.87,6.53,11.38,2.95,11.5S485.25,610.84,485.25,610.84Z" transform="translate(-140.99 -192.18)"/><path class="cls-33" d="M487.46,607.31s3.49,1.93,3.3,5.33-2.29,2.75-3.56.71C486.2,611.72,483.61,606.16,487.46,607.31Z" transform="translate(-140.99 -192.18)"/><path class="cls-39" d="M448,591.53C451.39,573.8,473,559,495.78,569.88c27.24,13,18.33,43.67,18.33,43.67s-14.4,9.09-18.56,6c0,0-6.75-17.53-15-18.4s-19.74,6.54-22.07,9S445.23,606.18,448,591.53Z" transform="translate(-140.99 -192.18)"/><path class="cls-40" d="M447.63,597.85c6.67-14.59,25.71-24.78,45.72-15.27,16.11,7.66,19.58,21.54,19.72,31.6-3.39,2-14,8-17.52,5.38,0,0-6.75-17.53-15-18.4s-19.74,6.54-22.07,9C456.51,612.29,448.46,608,447.63,597.85Z" transform="translate(-140.99 -192.18)"/><path class="cls-41" d="M493.68,644.51c10.48-7.63,7.23-21.19,8-30.81a2.66,2.66,0,0,0-2.44-2.87c-7.51-.62,2.48,21.25-8.68,29.38C487.7,642.29,490.84,646.59,493.68,644.51Z" transform="translate(-140.99 -192.18)"/><polygon class="cls-42" points="575.32 417.89 573.9 437.76 576.37 438.17 580.4 420.11 575.32 417.89"/><polygon class="cls-42" points="574.42 417.34 573.04 437.44 573.9 437.76 575.32 417.89 574.42 417.34"/><polygon class="cls-42" points="547.86 415.85 546.19 433.13 547.29 433.15 550.28 414.66 547.86 415.85"/><polygon class="cls-43" points="543.96 413.94 543.82 432.59 546.19 433.13 548.47 416.02 543.96 413.94"/><polygon class="cls-42" points="543.89 422.66 548.48 423.25 550.22 415.06 543.95 414.7 543.89 422.66"/><path class="cls-44" d="M690.21,609.1,683.55,608c-.78-11.43-.32-40.79,2.75-61.37l1.48-1.7,10.55-.51Z" transform="translate(-140.99 -192.18)"/><polygon class="cls-45" points="551.56 417.3 549.23 416.91 556.22 353.25 557.34 352.21 591.55 359.76 582.22 422.42 551.56 417.3"/><polygon class="cls-46" points="640.16 429.86 634.83 447.93 632.38 447.14 634.91 428.57 640.16 429.86"/><polygon class="cls-42" points="638.39 435.87 633.82 436.13 634.86 428.98 640.16 429.86 638.39 435.87"/><polygon class="cls-42" points="641.14 429.95 635.85 447.74 634.83 447.93 640.16 429.86 641.14 429.95"/><polygon class="cls-42" points="667.28 434.39 661.95 452.46 659.5 451.67 662.03 433.1 667.28 434.39"/><polygon class="cls-42" points="668.26 434.48 662.97 452.26 661.95 452.46 667.28 434.39 668.26 434.48"/><path class="cls-45" d="M815.84,569.07l.85.56,6.82,4.5.91.6,1.47-3.47.56-1.34.62-1.46,11.5-27.14c.89-3.79,1.54-13.61-5.8-19l0,0-14.87,41-1.18,3.26Z" transform="translate(-140.99 -192.18)"/><path class="cls-44" d="M721.79,582.12l2.21.36,1.86.29,2,.32.47.07,1.78.28.6.09,4.94.78,29.16,4.6,17.76,2.8.22,0,6.77,1.07,1.21.19,1.37.21.63.11,1.6.25,12.23,1.92.77-2,9.28-23.89,1-2.59,1.24-3.2L834.44,524c-.53-.52-1.09-1-1.69-1.53a42.64,42.64,0,0,0-9-5.5h0c-11.88-5.6-28.72-8.79-44.43-9.84h-.05l-2.39-.14c-1.57-.09-3.14-.15-4.68-.18h-.09a127.79,127.79,0,0,0-20.24.93,46.5,46.5,0,0,0-9.64,2.21l-1.2,1.53L736,530,734.08,537l-.25.89-1.41,5.2-.25.93-.06.21-1.71,6.28-.24.88h0L728.37,558l-.26.95-1.66,6.1-.26.94-.94,3.44,0,.13-.11.38-.13.5-.56,2,0,.16h0l-2.06,7.54-.51,1.89Z" transform="translate(-140.99 -192.18)"/><path class="cls-47" d="M769.56,564l.13,6.14,0,1.8.1,4.56.07,3.83.61.15,1.32.34.68.18,2.42.62,4.83,1.25,1.76.45,2.16.56.39.1h0l.41.11.69.28h0l1.84.76,4.15,1.7.17.07.87.36,1.26.52.07,0h0l.61.25,13.24,5.44h0l16.09-19.39,2.38-2.87,1-1.2.85-1-.66-.57,11.5-27.14c.89-3.79,1.54-13.61-5.8-19l0,0a42.64,42.64,0,0,0-9-5.5h0L802,541.67h0l-.54.63-3,3.39-2.11,2.41-.62.7L793,552l-1.82,2.07-5,5.71L784.21,562l-.3.34-.23.26-4.35.45-1.54.15-4.13.43-1.29.13-.41,0h0l-.2,0Z" transform="translate(-140.99 -192.18)"/><polygon class="cls-48" points="636.3 344.82 645.42 379.64 643.56 390.85 628.91 388.15 633.92 354.49 636.3 344.82"/><polygon class="cls-44" points="554.52 417.8 554.92 397.91 647.84 412.51 642.25 434.13 554.52 417.8"/><polygon class="cls-44" points="556.62 398.18 560.69 376.22 650.87 392.2 645.54 412.12 556.62 398.18"/><polygon class="cls-49" points="660.09 369.37 686.55 378.09 687.12 383.16 669.62 436.21 643.21 434.29 658.53 370.54 660.09 369.37"/><polygon class="cls-48" points="554.65 411.39 615.77 418.43 619.45 408.03 640.02 411.14 636.54 433.18 554.52 417.8 554.65 411.39"/><polygon class="cls-48" points="557.96 390.92 619.74 406.08 627.68 388.09 642.56 392.76 640.02 411.14 556.62 398.18 557.96 390.92"/><polygon class="cls-50" points="560.69 376.22 605.34 384.47 590.15 395.41 558.65 387.2 560.69 376.22"/><polygon class="cls-51" points="554.92 397.91 554.71 408.23 592.67 411.43 601.25 405.19 554.92 397.91"/><path class="cls-52" d="M763.17,579.69l5.37,1.45.8.21h0l3.75,1,1.53.41h0l4.86,1.3,1.78.48,3.66,1,2,.53,16.26,4.35-1.08-4.49s1.42-6.76,2.85-15.48c.46-2.84.93-5.88,1.35-8.95a100.2,100.2,0,0,0,.87-10.31,64.58,64.58,0,0,0-.35-10.33,87.78,87.78,0,0,1-14.09,1.69h-1.53a22.68,22.68,0,0,1-4.18-.43l-.51-.11-.09,0a25.71,25.71,0,0,1-3.5-1.22q-.79-.35-1.53-.72c-.94-.47-1.8-1-2.57-1.44l-.15-.1c-.36-.22-.69-.45-1-.66l-.22-.14a27,27,0,0,1-2.52-2s-4,17.7-5.23,26.51-2.57,12-2.57,12Z" transform="translate(-140.99 -192.18)"/><path class="cls-53" d="M803.44,541.45a77.28,77.28,0,0,1,.08,19.94,204.82,204.82,0,0,1-4.58,23.24l.7,4.82-2.7-.72s0-4.3,0-4.87,3.15-14.57,4.49-23.47a75.31,75.31,0,0,0,0-18.63Z" transform="translate(-140.99 -192.18)"/><path class="cls-53" d="M798.11,542.17a58.17,58.17,0,0,1-.18,17.3c-1.58,8.71-4.46,21.52-4.61,23.37a30.87,30.87,0,0,0,.24,5l-2.15-.58a15.48,15.48,0,0,1,0-5c.48-2.09,4.27-19.55,5-23.72s-.35-16.18-.35-16.18Z" transform="translate(-140.99 -192.18)"/><path class="cls-53" d="M792.74,542.53a92.7,92.7,0,0,1-.16,15.57c-.82,8.27-5,22.89-5.16,24.09s-.49,3.86-.49,3.86l-2-.53s.76-3.15,1.51-7,4.07-16.48,4.53-21.94.24-14.09.24-14.09Z" transform="translate(-140.99 -192.18)"/><path class="cls-53" d="M788,542.41s.12,6.42-2.14,18.71c-2.09,11.39-4.62,23.44-4.62,23.44l-1.77-.47s3.31-14.56,5-23.67c1.29-6.91,1.93-18.48,1.93-18.48Z" transform="translate(-140.99 -192.18)"/><path class="cls-53" d="M772.13,582.06l2.49.74v0h0c.21-.82,3.59-13.71,5.42-23.37,1.72-9,2.7-17.12,2.88-18.63-.53-.23-1-.47-1.53-.71a178.17,178.17,0,0,1-3.09,20.84A189.85,189.85,0,0,1,772.13,582.06Z" transform="translate(-140.99 -192.18)"/><path class="cls-53" d="M765.39,580.29l2.41.64s2.26-3.67,4.84-13.28,6.19-29,6.19-29l-.15-.1-1-.66-.22-.14s-5.16,25.66-6.91,31.88C769.38,573.72,766.06,579.21,765.39,580.29Z" transform="translate(-140.99 -192.18)"/><path class="cls-54" d="M763.17,579.69l3.78,1s5.12-24.09,12-30.25,28.08,1.24,28.08,1.24l.12-.54a64.5,64.5,0,0,0-.35-10.32,89.09,89.09,0,0,1-14.09,1.69h-1.53a21.88,21.88,0,0,1-4.18-.42l-.51-.11-.08,0a24.12,24.12,0,0,1-3.51-1.21c-.53-.23-1-.47-1.53-.71-.94-.48-1.8-1-2.57-1.45l-.15-.1c-.36-.22-.7-.45-1-.66l-.22-.14a27,27,0,0,1-2.52-2s-4,17.7-5.23,26.51-2.57,12-2.57,12Z" transform="translate(-140.99 -192.18)"/><path class="cls-55" d="M769.34,581.35h0l3.75,1,1.53.41h0l4.86,1.3,1.78.48,3.66,1,2,.53,16.26,4.35-1.08-4.49s1.42-6.76,2.85-15.48a23.85,23.85,0,0,1-16.11,6C773.94,576.73,769.34,581.35,769.34,581.35Z" transform="translate(-140.99 -192.18)"/><path class="cls-44" d="M777.53,625.36s6.51-43.68,10.71-64.59l1.17-1.61,11.66,2.4-16.88,64.91Z" transform="translate(-140.99 -192.18)"/><path class="cls-49" d="M799.51,562.72l-9.45-2.23c-3.06,3.83-7.66,33.58-7.66,33.58s3.31-29.29,5.84-33.3l1.17-1.61s13.08.83,17.88,2.2Z" transform="translate(-140.99 -192.18)"/><path class="cls-45" d="M783.33,626.33l27,4.51,2.13-6,18-50.9-.68-2.75a21.21,21.21,0,0,0-2.11-2.13l-.66-.57a29.34,29.34,0,0,0-8.13-4.62c-.35-.14-.7-.27-1.06-.39a40.11,40.11,0,0,0-10.6-2.09l-.95-.05c-1,0-1.91,0-2.8,0a22.91,22.91,0,0,0-2.3.2l-.16,0-1.56,1.17a129.71,129.71,0,0,0-4.18,12.87c-.68,2.38-1.35,4.9-2,7.5-.36,1.38-.72,2.78-1.07,4.18l0,.18c-.21.81-.41,1.62-.62,2.43-.25,1-.5,2.08-.76,3.12-.95,3.93-1.87,7.86-2.72,11.57-2,8.79-3.62,16.33-4.34,19.76Z" transform="translate(-140.99 -192.18)"/><polygon class="cls-47" points="643.15 391.29 652 398.92 671.51 432.62 669.37 438.66 642.35 434.15 636.54 433.18 643.15 391.29"/><path class="cls-56" d="M716.68,584.65c2-1.63,5.57-12.55,7.61-24.21l-1.16-5c-6.62-3.76-17.12-6.1-18.61-4.68Z" transform="translate(-140.99 -192.18)"/><polygon class="cls-57" points="579.86 362.45 583.89 363.87 589.21 400.75 575.92 431.04 575.04 430.72 586.66 398.68 579.86 362.45"/><polygon class="cls-57" points="565.39 428.6 576.38 427.01 577.51 427.41 582.94 434.77 565.39 428.6"/><path class="cls-58" d="M726.46,592.38c-.3,2.26.33,4.4,1.41,4.78s2.2-1.14,2.5-3.41S730,589.35,729,589,726.76,590.11,726.46,592.38Z" transform="translate(-140.99 -192.18)"/><path class="cls-59" d="M727,592.58c-.3,2.26.33,4.4,1.41,4.78s2.2-1.14,2.5-3.41-.33-4.4-1.41-4.78S727.33,590.31,727,592.58Z" transform="translate(-140.99 -192.18)"/><path class="cls-57" d="M727.94,592.9c-.16,1.21.18,2.35.75,2.55s1.18-.61,1.34-1.82-.18-2.35-.76-2.55S728.1,591.69,727.94,592.9Z" transform="translate(-140.99 -192.18)"/><path class="cls-57" d="M707.12,571c3.36,9.36,7.64,15.46,9.56,13.63,1.51-1.45,1.11-7.38-.76-14.4-.5-1.9-1.12-3.88-1.84-5.88-.37-1-.76-2-1.15-3-3.13-7.61-6.71-12.24-8.41-10.62C702.6,552.59,703.76,561.66,707.12,571Z" transform="translate(-140.99 -192.18)"/><path class="cls-60" d="M707.71,570.38c2.95,8.26,6.73,13.64,8.43,12,1.31-1.26,1-6.33-.6-12.39,0-.1,0-.19-.08-.29-.44-1.68-1-3.43-1.62-5.19-.32-.92-.66-1.81-1-2.65a.84.84,0,0,1-.06-.14c-2.75-6.64-5.87-10.65-7.36-9.23C703.71,554.13,704.74,562.13,707.71,570.38Z" transform="translate(-140.99 -192.18)"/><path class="cls-61" d="M711.69,564.5c-.34,2.58.67,5.13,2.25,5.69a1.84,1.84,0,0,0,1.6-.18c0-.1,0-.19-.08-.29-.44-1.68-1-3.43-1.62-5.19-.32-.92-.66-1.81-1-2.65a.84.84,0,0,1-.06-.14A5.6,5.6,0,0,0,711.69,564.5Z" transform="translate(-140.99 -192.18)"/><path class="cls-62" d="M714.73,560a50.27,50.27,0,0,0-5-7.38s4.11-.3,11.3,3.13l1.35,4.14A54.85,54.85,0,0,0,714.73,560Z" transform="translate(-140.99 -192.18)"/><polygon class="cls-63" points="536.99 449.81 566.38 377.9 537 371.23 512.11 446.54 536.99 449.81"/><polygon class="cls-64" points="537 371.23 505.44 359.81 488.02 435.58 512.11 446.54 537 371.23"/><polygon class="cls-65" points="558.71 376.95 524.45 364.65 503.97 359.27 537 371.23 558.71 376.95"/><polygon class="cls-66" points="525.48 448.3 552.53 375.32 548.15 374.17 523.73 448.06 525.48 448.3"/><polygon class="cls-67" points="581.36 402.92 581.53 414.62 543.83 414.98 542.47 403 581.36 402.92"/><polygon class="cls-68" points="527.42 411.15 542.47 403 542.83 405.75 527.83 412.38 527.42 411.15"/><polygon class="cls-68" points="543.84 413.44 527.46 414.06 527.48 415.14 539.36 414.76 543.83 414.98 543.84 413.44"/><polygon class="cls-69" points="528.5 412.08 528.53 414.02 543.84 413.44 542.83 405.75 528.5 412.08"/><polygon class="cls-70" points="528.52 413.29 540.99 408.87 541.32 410.83 532.36 413.14 541.04 411.88 541.36 413.71 543.84 413.44 542.83 405.75 528.5 412.08 528.52 413.29"/><polygon class="cls-71" points="577.33 402.93 577.5 414.66 574.03 414.62 574.18 402.93 577.33 402.93"/><polygon class="cls-71" points="549.11 402.98 549.28 414.93 551.99 414.9 551.82 402.98 549.11 402.98"/><polygon class="cls-72" points="580.38 404.31 570.94 404.38 568.15 412.68 580.19 410.97 580.38 404.31"/><polygon class="cls-73" points="570.39 404.61 566.22 404.77 563.67 412.3 567.58 412.04 570.39 404.61"/><polygon class="cls-74" points="581.49 411.62 552.92 410.22 547.52 402.99 542.47 403 543.83 414.98 581.53 414.62 581.49 411.62"/><polygon class="cls-75" points="533.87 398.31 509.78 396.24 495.15 397.2 496.87 406.07 533.87 407.24 533.87 406.16 510.68 404.08 510.1 397.55 533.87 399.68 533.87 398.31"/><polygon class="cls-61" points="510.68 404.08 510.1 397.55 533.01 399.68 533.01 406.16 510.68 404.08"/><polygon class="cls-76" points="532.88 401.14 515.63 399.68 515.63 400.81 523.41 402.22 510.45 401.48 510.1 397.55 533.01 399.68 532.88 401.14"/><polygon class="cls-53" points="507.48 396.39 508.43 406.07 506.72 406.07 505.33 396.53 507.48 396.39"/><polygon class="cls-53" points="498.27 397 499.94 406.07 498.85 406.07 496.85 397.09 498.27 397"/><polygon class="cls-77" points="535.05 445.81 548.94 443.55 546.88 442.68 535.05 444.58 535.05 445.81"/><polygon class="cls-77" points="545.54 371.13 547.93 443.39 546.91 443.39 543.7 371.13 545.54 371.13"/><polygon class="cls-78" points="547.93 443.39 548.94 443.55 548.82 371.07 545.54 371.13 547.93 443.39"/><polygon class="cls-79" points="548.3 381.95 546.28 382.93 547.53 419.96 548.09 418.22 548.3 381.95"/><polygon class="cls-80" points="548.83 377.08 545.82 378.61 545.54 371.13 548.82 371.07 548.83 377.08"/><path class="cls-81" d="M666.42,547.17l.07.2a.06.06,0,0,1,0,0c.12.34.24.71.38,1.1,9.55,28,33.44,25.23,38.79,0A109.85,109.85,0,0,0,708,530.76c.77-17.37-3.13-30.62-9.16-30.83-9.14-.31-13.74,15.56-20.63,27.44-.78,1.35-1.6,2.64-2.44,3.86C666.42,544.51,663.94,539.74,666.42,547.17Z" transform="translate(-140.99 -192.18)"/><path class="cls-82" d="M666.42,547.17l.07.2a.06.06,0,0,1,0,0,23.59,23.59,0,0,0,1.69,3.61c2.64,4.63,8.57,11.61,19.2,7.88,7.63-2.66,12.75-9.64,16-16A59.18,59.18,0,0,0,708,530.76s-3.43-5.84-17.47-6.54a24,24,0,0,0-12.32,3.15c-.78,1.35-1.6,2.64-2.44,3.86C666.42,544.51,663.94,539.74,666.42,547.17Z" transform="translate(-140.99 -192.18)"/><path class="cls-82" d="M668.19,551c2.64,4.63,8.57,11.61,19.2,7.88,7.63-2.66,12.75-9.64,16-16,0,0-8.88-5.63-22.74,1.38C674.57,547.37,670.67,549.55,668.19,551Z" transform="translate(-140.99 -192.18)"/><path class="cls-83" d="M665.59,544.22s9.48,26.32,28.59,10.68c16.36-13.39,17.08-48,4.61-55,0,0,11.66,1.6,8.86,32C705.07,559.87,673.31,574.91,665.59,544.22Z" transform="translate(-140.99 -192.18)"/><path class="cls-84" d="M698.13,500.57l3,6s-8.17,18.71-22,29.29l-1.57-2.54S690.91,516.46,698.13,500.57Z" transform="translate(-140.99 -192.18)"/><path class="cls-85" d="M701.9,508.09l2.84,8.71s-8.81,14.67-22.88,22l-1.24-1.62S693.35,527.58,701.9,508.09Z" transform="translate(-140.99 -192.18)"/><polygon class="cls-86" points="564.64 358.25 561.96 445.81 535.05 445.81 535.05 443.15 530.52 366.11 535.05 369.16 537.12 443.95 560.87 444.66 559.86 359.83 564.64 358.25"/><polygon class="cls-87" points="564 359.06 561.9 360.1 561.9 418.22 562.32 416.45 564 359.06"/><polygon class="cls-77" points="559.86 359.83 558.54 360.18 560.15 444.64 560.87 444.66 559.86 359.83"/><polygon class="cls-77" points="535.05 369.16 536.72 369.77 537.95 443.98 537.12 443.95 535.05 369.16"/><polygon class="cls-88" points="563.17 393.4 561.9 394.43 561.9 422.37 562.54 421.17 563.17 393.4"/><polygon class="cls-89" points="533.26 367.95 536.5 445.81 535.59 445.81 531.22 366.57 533.26 367.95"/><polygon class="cls-90" points="561.54 360.56 561.65 445.81 561.15 445.81 560.48 360.1 561.54 360.56"/><polygon class="cls-91" points="535.05 444.58 535.1 436.86 532.1 382.49 531.4 381.04 535.05 444.58"/><ellipse class="cls-92" cx="562.54" cy="402.96" rx="21.49" ry="38.35"/><polygon class="cls-93" points="476.04 427.45 482.67 436.95 486.21 435.15 482.76 424.2 476.04 427.45"/><polygon class="cls-94" points="465.56 449.03 481.5 435.28 485.6 433.21 504.27 429.98 465.56 449.03"/><polygon class="cls-95" points="446.43 441.8 409.68 382.83 490.65 345.58 515.12 408.58 446.43 441.8"/><polygon class="cls-93" points="446.43 441.8 444.53 442.76 408.19 385.65 409.68 382.83 446.43 441.8"/><polygon class="cls-96" points="490.31 350.61 509.93 401.03 444.43 434.21 413.59 385.45 413.57 385.41 490.31 350.61"/><polygon class="cls-97" points="489.44 351.05 509.06 401.47 444.43 434.21 413.59 385.45 489.44 351.05"/><polygon class="cls-98" points="446.43 440.86 444.99 434.93 510.71 401.63 490.78 350.2 490.73 347.01 513.94 407.59 446.43 440.86"/><polygon class="cls-61" points="504.21 409.11 503.4 406.83 510.37 403.3 510.96 405.69 504.21 409.11"/><polygon class="cls-99" points="410.41 383.49 446.43 440.86 486.49 421.12 485.68 414.31 444.99 434.93 412.68 384.85 410.41 383.49"/><polygon class="cls-61" points="446.43 441.8 409.68 382.83 490.65 345.58 412.14 383.79 447.25 441.4 446.43 441.8"/><polygon class="cls-100" points="485.56 422.87 515.12 408.58 496.02 359.4 496 360.63 513.94 407.59 486.49 421.12 485.56 422.87"/><path class="cls-101" d="M559.06,578l71.17-32.49L648,589.8s-14.39-29.12-21.8-32.74C615.93,552.05,559.06,578,559.06,578Z" transform="translate(-140.99 -192.18)"/><polygon class="cls-102" points="415.56 387.1 444.38 433.09 504.96 401.62 444.37 430.41 415.56 387.1"/><polygon class="cls-103" points="425.11 386.49 439.85 380.23 490.98 402.69 487.34 404.54 425.11 386.49"/><polygon class="cls-104" points="444.16 377.84 458.03 371.51 495.08 399.6 492.43 400.95 444.16 377.84"/><polygon class="cls-101" points="478.24 427.97 482.76 425.68 484.67 433.68 497.81 433.86 490.21 437.43 483.01 434.52 478.24 427.97"/><polygon class="cls-101" points="486.23 439.31 482.58 434.74 482.18 434.48 484.12 440.3 486.23 439.31"/><polygon class="cls-93" points="465.56 449.03 466.34 450.04 504.4 432.7 504.27 429.98 465.56 449.03"/><polygon class="cls-105" points="468.13 447.73 481.5 435.28 482.18 434.48 478.62 442.88 468.13 447.73"/><ellipse class="cls-106" cx="552.11" cy="229.66" rx="8.86" ry="5.75"/><path class="cls-77" d="M747.36,532s-6.31-5.5-9.82-5.5a4.86,4.86,0,0,0-4.61,2.4,12.94,12.94,0,0,1,6,.68,23.66,23.66,0,0,1,6.7,4.34Z" transform="translate(-140.99 -192.18)"/><path class="cls-107" d="M722.45,545.76s17.67-10.44,19.59-13,8.18-6.13,8.18-6.13L742,539.35Z" transform="translate(-140.99 -192.18)"/><path class="cls-108" d="M724.6,544.63l21.32,30.9a54.21,54.21,0,0,0,19.39-10.11c5.3-4.36,9.77-15,9.77-15l-3.3-3.17c-4.43-4.24-12.16-11.65-16-15.29l-5.56-5.27s-7.6,8.79-11.37,11.05S724.6,544.63,724.6,544.63Z" transform="translate(-140.99 -192.18)"/><path class="cls-107" d="M724.6,544.63l-2.15,1.13s11.47,29.45,12.52,31.11,9.42-.62,11-1.34S724.6,544.63,724.6,544.63Z" transform="translate(-140.99 -192.18)"/><path class="cls-109" d="M736,528.89s-3.27,3.48-3.58,7.6a45.68,45.68,0,0,0,.13,7.83l-3.45,1.8s.31-8.59,1.36-12.7c1.78-6.93,6.5-6.91,6.5-6.91S735.51,526.87,736,528.89Z" transform="translate(-140.99 -192.18)"/><path class="cls-77" d="M726.6,543.83a88.31,88.31,0,0,1,13,5.85c5.07,3.05,12,7,17.38,2.72s-.21-14.11-3.64-17.33-5.65-5.63-5.65-5.63l.5-.55a89,89,0,0,1,9.68,11.16c3.71,5.38,2.89,11.29-.64,13.74s-9.78,2.42-14.8-1.11-12.24-6.35-14.06-7.6-2.86-.71-2.86-.71Z" transform="translate(-140.99 -192.18)"/><path class="cls-107" d="M755.52,550.48a53.88,53.88,0,0,1,4.74,5.38l1.12,1.72-2,1a40.2,40.2,0,0,0-2.61-4.5c-1.1-1.48-2-2.62-2-2.62Z" transform="translate(-140.99 -192.18)"/><path class="cls-110" d="M737.71,571.08,728.59,554l8.24,17.57c-1.09,1.4-1.86,5.32-1.86,5.32s2.36,2,10.06-.87C745,576,739.36,571.34,737.71,571.08Z" transform="translate(-140.99 -192.18)"/><path class="cls-111" d="M724.6,544.63l21.32,30.9a54.21,54.21,0,0,0,19.39-10.11c5.3-4.36,9.77-15,9.77-15l-3.3-3.17c-3.28.73-8.65,1.86-9.88,1.8-1.8-.1-23-11.31-23-11.31C735.08,540,724.6,544.63,724.6,544.63Z" transform="translate(-140.99 -192.18)"/><polygon class="cls-77" points="605.24 338.87 601.43 336.19 600.13 338.42 603.45 340.72 605.24 338.87"/><path class="cls-112" d="M785.18,573.07l20.35-27.94-11.59,12,14.62-22.49-11.33,14.64,7.91-12.49L788.76,554l9.59-13.87-15.62,16.1,17.08-28.58-14.26,17.9,9-18.27L777.83,551l16.45-33-16.49,25.45,8.7-25.5-19.31,37.55,7.11-24.76-13,28.05a57.16,57.16,0,0,0,10.94,8.75A53.83,53.83,0,0,0,785.18,573.07Z" transform="translate(-140.99 -192.18)"/><polygon class="cls-113" points="621.97 367.8 643.21 321.01 624.04 370.64 621.97 367.8"/><polygon class="cls-113" points="625.84 371.76 651.95 334.82 627.64 373.38 625.84 371.76"/><polygon class="cls-113" points="621.03 367.67 629.95 341.65 619.9 366.77 621.03 367.67"/><polygon class="cls-113" points="630.05 374.89 661.3 341.25 633.21 377.01 630.05 374.89"/><polygon class="cls-113" points="637.21 378.49 667.87 346.51 641.91 380.37 637.21 378.49"/><polygon class="cls-113" points="642.78 380.52 661.01 358.06 644.35 381.33 642.78 380.52"/><polygon class="cls-113" points="634.3 377.17 664.23 341.87 637.08 378.67 634.3 377.17"/><path class="cls-114" d="M760,556.07,736,606s18.14,11.29,19,11.39l32.38-42.79-21.3-14.4h0Z" transform="translate(-140.99 -192.18)"/><polygon class="cls-115" points="596.3 414.63 595.17 417.63 610.4 427.23 612.72 424.64 596.3 414.63"/><polygon class="cls-116" points="631.88 372 619.75 409.89 603.25 412.06 598.23 407.15 595.02 413.82 614.08 425.22 646.46 382.43 631.88 372"/><polygon class="cls-117" points="612.16 378.15 622.61 375.43 623.5 385.29 633.69 382.42 634.57 390 641.56 388.9 639.04 392.23 631.97 393.81 631.9 385.08 621.57 388.35 620.19 378.07 610.99 380.58 612.16 378.15"/><polygon class="cls-117" points="600.57 402.27 609.35 399.07 609.34 408.37 618.48 404.83 618.65 411.96 625.43 410.21 622.9 413.55 616.07 415.79 616.7 407.5 607.41 411.42 607.02 401.77 599.43 404.64 600.57 402.27"/><polygon class="cls-117" points="606.09 390.79 614.91 387.92 615.91 399.84 624.08 396.36 624.26 405.25 630.62 403.35 633.45 399.61 625.62 403.11 626.15 393.27 617.2 397.8 616 385.65 607.4 388.06 606.09 390.79"/><polygon class="cls-53" points="516.2 402.59 516.9 424.43 514.75 425.29 510.43 404.55 516.2 402.59"/><polygon class="cls-53" points="522.87 423.65 516.81 421.79 514.25 422.91 508.71 429.72 522.87 423.65"/><polygon class="cls-118" points="515.72 404.56 513.72 406.32 515.46 420.62 516.5 419.99 515.72 404.56"/><polygon class="cls-53" points="514.83 356.32 514.38 355.54 502.08 359.86 501.7 361.06 514.83 356.32"/><polygon class="cls-119" points="516.23 355.82 499.76 361.75 499.15 408.38 527.63 398.7 516.23 355.82"/><polygon class="cls-53" points="525.69 391.41 499.25 400.83 499.35 393.44 523.91 384.7 525.69 391.41"/><polygon class="cls-53" points="522.86 380.74 499.41 388.86 499.43 387.11 522.27 378.53 522.86 380.74"/><polygon class="cls-120" points="515.92 357.49 511.79 358.73 521.59 398.99 526.16 397.64 515.92 357.49"/><polygon class="cls-121" points="511.22 359.36 508.35 360.06 516.41 397.78 519.45 396.58 511.22 359.36"/><polygon class="cls-76" points="506.17 359.44 510.4 401.73 513.57 403.48 499.15 408.38 499.76 361.75 506.17 359.44"/><path class="cls-115" d="M674.35,510.29l2.9.23s9.37-18,1.62-18.76c-6.65-.62-12.37,10.4-15.37,16.16s-59.31,125.86-59.31,125.86l1.77.14s57.32-123.06,60-128.25c3.4-6.53,8.71-12.19,11.88-11.94C682.76,494.11,674.35,510.29,674.35,510.29Z" transform="translate(-140.99 -192.18)"/><path class="cls-122" d="M609.85,626.44s43.92-75.11,46.55-80.18,3.69-19.74,3.69-19.74L670.37,510s-6.66,7.14-7.32,5.15-1.91-7.34-1.91-7.34L657,514.66a4.78,4.78,0,0,0,.59-4.43l-.88-2.68-4.25,18.84s-12.73,14.92-15.09,19.46-29.71,80.47-29.71,80.47Z" transform="translate(-140.99 -192.18)"/><path class="cls-74" d="M663.05,515.13l-5.67,10.23s-7.12,12.92-11.09,17.92-12.54,27.53-12.54,27.53,5-21.22,9.19-26.45,10.46-14.61,10.46-14.61-12.86,13.35-14.92,17.31-26.06,69.16-26.06,69.16,23.45-67.94,25-70.37S653.83,527,653.83,527l3.38-16.81.5,3.24,3.43-5.64-3.88,13.68,5.19-8.43Z" transform="translate(-140.99 -192.18)"/><polygon class="cls-123" points="515.99 351.75 510.65 347.83 471.45 426.63 473.56 426.22 515.99 351.75"/><polygon class="cls-124" points="493.05 403.32 460.26 400.51 440.36 401.82 442.69 413.88 493.05 413.88 493.05 411.18 461.49 411.18 460.7 402.3 493.05 405.2 493.05 403.32"/><polygon class="cls-61" points="461.49 411.18 460.7 402.3 491.88 405.2 491.37 411.18 461.49 411.18"/><polygon class="cls-76" points="491.71 407.18 468.23 405.2 468.23 406.74 478.82 408.65 461.18 407.64 460.7 402.3 491.88 405.2 491.71 407.18"/><polygon class="cls-125" points="457.13 400.71 458.43 413.88 456.1 413.88 454.21 400.91 457.13 400.71"/><polygon class="cls-126" points="444.6 401.54 446.88 413.88 445.39 413.88 442.66 401.67 444.6 401.54"/><path class="cls-127" d="M807.19,643.25l-4.55,7s9.84-1.2,11.6.37,0,23.89-.76,24.72-11.6-.36-11.6-.36l4.41,7.4s10.43,1.19,13.39-.9,3.45-33.05,2.11-34.71S807.19,643.25,807.19,643.25Z" transform="translate(-140.99 -192.18)"/><path class="cls-77" d="M602.73,631.71c-.39,0-.76,0-1.13-.08a10.91,10.91,0,0,1-5.4-2,4.34,4.34,0,0,1-2-3.52c.09-2.71,3.46-4.85,7.76-5h0q.53,0,1.08,0a13.43,13.43,0,0,1,2.77.37l.56.14a10.6,10.6,0,0,1,1.5.56c2.27,1,3.73,2.69,3.67,4.52-.07,2.24-2.37,4.09-5.59,4.76h0A13.72,13.72,0,0,1,602.73,631.71Z" transform="translate(-140.99 -192.18)"/><path class="cls-127" d="M782.54,708.24l-157.75-5-15.41-.48s-.14-1.58-.35-4.33c-.11-1.35-.22-3-.37-4.87-.06-.88-.13-1.8-.21-2.79-.12-1.63-.23-3.38-.36-5.24q-.09-1.39-.21-2.85c-.18-3.09-.39-6.42-.6-9.88-.08-1.29-.15-2.61-.22-3.94-.57-10.33-1-21.51-1.12-31.19v-4.86c0-.47,0-1,0-1.42,0-1.77.07-3.45.14-5,0,0,0,0,0,0,0-1.71.16-3.31.28-4.77a36.44,36.44,0,0,1,1-6.76,13.86,13.86,0,0,1,2-4.24s0,0,0,0h0a16,16,0,0,1,1.06-1.34s0,0,0,0c.33-.37.66-.73,1-1.06h0a14.16,14.16,0,0,1,1.26-1.1,19.61,19.61,0,0,1,5.32-3.09l0,0,15,10.13,2.44,1.65,26.08,17.59,5.28,3.57h0l9,6.11,28.18,10.51,69,25.74h0l13.42,5,21.71,8.1S788.57,708.43,782.54,708.24Z" transform="translate(-140.99 -192.18)"/><path class="cls-128" d="M703.94,685.05c-44.65-1.15-89.12-3.76-89.12-3.76l3.31-77.41c.49,0,26.08.85,78.75,6.29,5.86.6,12,1.27,18.58,2,53.64,6,93,13.91,93,13.91l-.09,66.24s-49.12-5.41-97-7C708.84,685.19,706.39,685.12,703.94,685.05Z" transform="translate(-140.99 -192.18)"/><path class="cls-127" d="M633.84,604.72s-5,62.58-2.1,68.37c0,0,144.19,11.36,154.91,11.13s6.77-60.92,6.77-60.92l-2.06-.62s3.28,51.83-5,55.56S643,674,637.3,669.27s-1-64.38-1-64.38Z" transform="translate(-140.99 -192.18)"/><path class="cls-127" d="M749,678.75s3.5-11.55,5.29-32.88c1.7-20.22-.13-28.79-.13-28.79l-4.1-.58a91.43,91.43,0,0,1,2.48,29.32c-1.34,15.86-8.67,32.76-8.67,32.76Z" transform="translate(-140.99 -192.18)"/><path class="cls-127" d="M752.77,642.32s-27.86-4.21-58.41-7.16a506.53,506.53,0,0,0-59.61-1.88l-1.52,1.38Z" transform="translate(-140.99 -192.18)"/><polygon class="cls-129" points="609.94 427.94 600.26 424.04 594.94 425.67 594.89 427.46 610.33 429.97 609.94 427.94"/><polygon class="cls-129" points="650.5 432.64 645.48 431.07 641.05 431.64 640.98 434.05 645.71 434.19 650.58 434.35 650.5 432.64"/><path class="cls-77" d="M606.09,626.49a32.31,32.31,0,0,1-.26-5,23.6,23.6,0,0,1,1.14-6.89,10.1,10.1,0,0,1,2.43-4s0,0,0,0h0l.06,0c1.3-1.24,2.52-2.28,3.61-3.15a34,34,0,0,1,5-3.43l0,0-.34,11.27-.13,0a17.56,17.56,0,0,0-7.82,4.59,16.92,16.92,0,0,0-2,2.37,10.22,10.22,0,0,0-1.78,4.21s0,0,0,0A.35.35,0,0,0,606.09,626.49Z" transform="translate(-140.99 -192.18)"/><path class="cls-77" d="M609.38,702.79c-1.2-.35-2.07-1.54-2.68-3.29a28.53,28.53,0,0,1-1.17-7.46h0c0-.76-.06-1.54-.07-2.35s0-1.83,0-2.77.06-2.16.12-3.23h0s0,0,0,0c.1-2.21.28-4.37.45-6.33.16-1.6.32-3.07.47-4.3.3-2.51.53-4.13.53-4.13h0l8.25-3.44a19.45,19.45,0,0,0,.05,3.26v0c1,10.83,10.1,13.14,10.1,13.14l-.66,21.4S616.51,704.82,609.38,702.79Z" transform="translate(-140.99 -192.18)"/><path class="cls-77" d="M603.36,611.21c-.13,0-.26,0-.39,0a10.31,10.31,0,0,1-1.48-.16c-3.88-.64-6.71-2.87-6.63-5.41.09-2.92,4-5.18,8.83-5,3.25.1,6,1.28,7.49,3a3.78,3.78,0,0,1,1,2.62v.13a3.55,3.55,0,0,1-.67,1.81h0a4.15,4.15,0,0,1-1,1.06s0,0,0,0A11,11,0,0,1,603.36,611.21Z" transform="translate(-140.99 -192.18)"/><path class="cls-77" d="M598.71,685.49c-4.77-.15-8.58-2.65-8.48-5.59s4-5.2,8.81-5a13.71,13.71,0,0,1,2.94.42,9.11,9.11,0,0,1,4.06,2.06,4,4,0,0,1,1.5,3.12,4.2,4.2,0,0,1-1.95,3.21s0,0,0,0l0,0h0a9.24,9.24,0,0,1-3.28,1.44,1.65,1.65,0,0,1-.32.07h0c-.29.06-.58.11-.88.15A13.73,13.73,0,0,1,598.71,685.49Z" transform="translate(-140.99 -192.18)"/><path class="cls-77" d="M602.57,700c-4.78-.15-8.59-2.65-8.5-5.59.07-2.42,2.77-4.38,6.39-4.91a13.52,13.52,0,0,1,1.94-.14h.5a14.11,14.11,0,0,1,2.56.32,10.49,10.49,0,0,1,3,1.12,5.62,5.62,0,0,1,2.77,2.94v0a3.2,3.2,0,0,1,.19,1.19,4.46,4.46,0,0,1-2.38,3.51,8.58,8.58,0,0,1-2.33,1,13.19,13.19,0,0,1-3.9.5Z" transform="translate(-140.99 -192.18)"/><polygon class="cls-77" points="459.61 492.52 460.05 493.19 458.05 482.67 460.97 481.95 465.52 480.84 466.29 480.65 466.8 480.53 468.87 489.71 466.89 490.53 464.6 491.5 464.56 491.51 464.54 491.52 461.27 492.88 460.95 493.02 460.93 493.03 459.61 492.52"/><polygon class="cls-77" points="466.41 422.64 465.99 422.36 461.87 419.73 460.5 418.84 457.63 416.99 464.32 413.7 468.55 411.64 468.57 411.63 468.93 411.44 469 411.52 471.2 414.09 471.2 414.1 471.79 414.82 472.1 415.16 472.92 416.13 466.41 422.64"/><polygon class="cls-77" points="464.96 445.52 460.57 441.88 455.21 437.45 464.95 437.75 464.95 439.25 464.96 440.66 464.96 445.52"/><polygon class="cls-77" points="470.42 502.77 467.68 501.41 464.55 499.86 464.55 499.85 461.47 498.33 459.46 497.33 459.48 497.32 461.38 496.33 464.48 494.73 467.11 493.38 468.86 492.46 470.23 501.58 470.42 502.77"/><path class="cls-130" d="M609.38,702.79c-1.2-.35-2.07-1.54-2.68-3.29a13.19,13.19,0,0,1-3.9.5c-.11-2.69-.23-5.89-.34-9.49,0-.38,0-.76-.06-1.15l0-.85,3.1-1.6c0-1.07.06-2.16.12-3.23h0l0,0a9.24,9.24,0,0,1-3.28,1.44s0,0,0-.07c-.09-3.1-.19-6.39-.27-9.8a10.7,10.7,0,0,1,0-1.13l4.55-1.11c.3-2.51.53-4.13.53-4.13h0c-.57-10.33-1-21.51-1.12-31.19l-4.38-3.64c0-.82,0-1.64,0-2.43,0-.62,0-1.22,0-1.83.09-3.14.2-6.07.34-8.72h0q.53,0,1.08,0a13.43,13.43,0,0,1,2.77.37,23.6,23.6,0,0,1,1.14-6.89l-4.11-2.64c0-.25.07-.5.11-.73a21.4,21.4,0,0,1,.46-2.13,6.69,6.69,0,0,1,1.88-3.16,8.74,8.74,0,0,1,4.22-2.07h0l.43-.1c.4-.07.81-.14,1.2-.17a3.78,3.78,0,0,1,1,2.62v.13l.59.71a19.61,19.61,0,0,1,5.32-3.09l0,0c.1,0,1.23,0,3.42.15l1.06.05q1.47.06,3.39.18l1.06,0,1.52.09,2.47.14.16,0,1.1.07,1.05.06.48,0,2.49.17c2.09.13,4.36.3,6.8.48.47,0,.93.06,1.39.1l6.73.5c.8.08,1.63.14,2.47.21,2.94.23,6.08.49,9.37.77l3.1.27,3.91.35,4.07.37c.43,0,.86.08,1.28.12l1.11.1,1.12.1.72.07,4.39.43L685,609l4.33.42a2.77,2.77,0,0,0,.3,0l4.67.48,2.55.26H639.12L666,673l68.45,13.32,3.83,20.51-113.46-3.57S616.51,704.82,609.38,702.79Z" transform="translate(-140.99 -192.18)"/><rect class="cls-131" x="498.09" y="509.98" width="131.81" height="86.89"/><rect class="cls-132" x="590.3" y="509.98" width="39.6" height="86.89"/><line class="cls-133" x1="613.62" y1="596.13" x2="595.61" y2="510.72"/><line class="cls-133" x1="529.14" y1="595.91" x2="511.14" y2="510.49"/><line class="cls-133" x1="542.71" y1="595.91" x2="561.19" y2="510.49"/><line class="cls-133" x1="629.9" y1="531.71" x2="593.33" y2="596.13"/><line class="cls-133" x1="499.35" y1="545.75" x2="527.83" y2="595.91"/><path class="cls-134" d="M358.44,598.62c0,27.09,31.49,47.94,31.49,47.94s31.5-19.59,31.5-47.94a31.5,31.5,0,0,0-63,0Z" transform="translate(-140.99 -192.18)"/><circle class="cls-61" cx="248.95" cy="407.49" r="17.53"/><path class="cls-135" d="M796.18,863.88c166.58-.22,156.58.45,156.58-.45a.45.45,0,0,0-.45-.46c-166.54.22-156.58-.45-156.58.46A.45.45,0,0,0,796.18,863.88Z" transform="translate(-140.99 -192.18)"/><path class="cls-135" d="M777.71,845.31c129.46-.22,122.18.45,122.18-.46s7.42-.23-122.18-.45A.46.46,0,0,0,777.71,845.31Z" transform="translate(-140.99 -192.18)"/><path class="cls-135" d="M796.18,880.48c83.56-.21,80.09.44,80.09-.45s4.19-.24-80.09-.46A.46.46,0,0,0,796.18,880.48Z" transform="translate(-140.99 -192.18)"/><path class="cls-135" d="M918.54,746.87H832.26a.54.54,0,0,1,0-1.08h86.28a.54.54,0,1,1,0,1.08Z" transform="translate(-140.99 -192.18)"/><path class="cls-135" d="M885,758.6H829.28a.54.54,0,1,1,0-1.08H885a.54.54,0,1,1,0,1.08Z" transform="translate(-140.99 -192.18)"/><path class="cls-135" d="M947.29,776.66h-109a.55.55,0,0,1-.54-.55.54.54,0,0,1,.54-.54h109a.55.55,0,0,1,.55.54A.55.55,0,0,1,947.29,776.66Z" transform="translate(-140.99 -192.18)"/></g></g></svg>